<svg width="447" height="334" viewBox="0 0 447 334" fill="none" xmlns="http://www.w3.org/2000/svg">
<path d="M403.669 328.379C451.159 292.269 472.309 192.139 395.199 143.039C344.149 110.539 312.399 129.039 254.969 107.579C184.859 81.3393 174.409 2.05932 89.1393 41.0693C43.9593 61.7293 12.6393 119.959 7.13932 186.139C1.71932 250.949 24.6893 295.419 71.6293 325.809C181.859 330.539 292.309 329.689 403.669 328.379Z" fill="#FFF5D3"/>
<path d="M208.571 43.5663C201.401 72.3663 228.041 100.876 256.101 112.696C284.161 124.516 316.341 123.116 346.401 117.476C359.401 115.046 372.711 111.626 382.791 103.356C392.871 95.0863 398.711 80.7264 393.191 69.1264C388.311 58.8964 376.451 53.6563 365.131 50.9663C353.811 48.2763 341.811 47.1763 331.731 41.5163C322.171 36.1463 315.391 27.2563 307.081 20.2163C291.731 7.22635 270.141 0.806341 250.191 4.89634C230.241 8.98634 214.671 19.0863 208.571 43.5663Z" fill="#FFF5D3"/>
<path d="M423.43 176.042V154.252H415.14C414.16 150.494 412.666 146.89 410.7 143.542L416.54 137.692L401.14 122.282L395.29 128.122C391.942 126.154 388.338 124.66 384.58 123.682V115.422H362.82V123.682C359.072 124.664 355.478 126.158 352.14 128.122L346.29 122.282L330.88 137.692L336.72 143.542C334.757 146.892 333.263 150.496 332.28 154.252H324.02V176.042H332.28C333.263 179.798 334.757 183.402 336.72 186.752L330.88 192.602L346.29 208.002L352.14 202.162C355.491 204.123 359.094 205.621 362.85 206.612V214.872H384.63V206.612C388.385 205.622 391.988 204.125 395.34 202.162L401.19 208.002L416.6 192.602L410.76 186.752C412.705 183.4 414.179 179.796 415.14 176.042H423.43ZM373.72 184.042C369.985 184.044 366.334 182.938 363.228 180.865C360.122 178.792 357.7 175.844 356.27 172.394C354.839 168.944 354.464 165.148 355.191 161.485C355.918 157.822 357.716 154.457 360.356 151.815C362.996 149.174 366.36 147.375 370.023 146.645C373.685 145.916 377.482 146.289 380.932 147.718C384.383 149.147 387.332 151.567 389.407 154.672C391.482 157.777 392.59 161.427 392.59 165.162C392.582 170.163 390.591 174.957 387.053 178.493C383.516 182.028 378.721 184.017 373.72 184.022V184.042Z" fill="#C1AB65" fill-opacity="0.56"/>
<path d="M357.591 230.633L353.451 219.813L349.351 221.383C348.151 219.707 346.724 218.206 345.111 216.923L346.901 212.923L336.321 208.223L334.531 212.223C332.498 211.881 330.429 211.824 328.381 212.053L326.801 207.953L316.001 212.103L317.571 216.193C315.896 217.399 314.396 218.829 313.111 220.443L309.111 218.653L304.401 229.223L308.401 231.013C308.067 233.05 308.013 235.122 308.241 237.173L304.141 238.743L308.291 249.553L312.381 247.983C313.585 249.655 315.012 251.155 316.621 252.443L314.841 256.443L325.411 261.143L327.201 257.143C329.236 257.485 331.309 257.542 333.361 257.313L334.931 261.413L345.741 257.263L344.141 253.183C345.816 251.975 347.319 250.545 348.611 248.933L352.611 250.723L357.321 240.153L353.321 238.363C353.658 236.327 353.715 234.255 353.491 232.203L357.591 230.633ZM334.461 244.053C332.616 244.754 330.605 244.893 328.682 244.453C326.758 244.013 325.008 243.014 323.651 241.581C322.294 240.149 321.391 238.347 321.056 236.402C320.721 234.458 320.969 232.457 321.768 230.653C322.568 228.849 323.883 227.322 325.548 226.264C327.214 225.206 329.155 224.664 331.128 224.707C333.1 224.749 335.016 225.375 336.634 226.504C338.252 227.633 339.5 229.216 340.221 231.053C340.703 232.284 340.937 233.599 340.909 234.921C340.88 236.243 340.589 237.546 340.054 238.755C339.518 239.964 338.748 241.055 337.788 241.964C336.828 242.874 335.697 243.584 334.461 244.053Z" stroke="#C1AB65" stroke-opacity="0.56" stroke-miterlimit="10"/>
<path d="M322.19 192.73L319.39 185.43L316.62 186.49C315.808 185.364 314.846 184.354 313.76 183.49L314.96 180.78L307.82 177.6L306.61 180.31C305.236 180.079 303.836 180.039 302.45 180.19L301.39 177.43L294.09 180.23L295.15 182.99C294.027 183.808 293.018 184.773 292.15 185.86L289.44 184.65L286.24 191.81L288.95 193.02C288.718 194.394 288.681 195.795 288.84 197.18L286.07 198.24L288.87 205.54L291.64 204.48C292.452 205.606 293.415 206.615 294.5 207.48L293.3 210.19L300.44 213.37L301.65 210.66C303.025 210.887 304.425 210.924 305.81 210.77L306.87 213.54L314.17 210.74L313.14 207.96C314.266 207.148 315.276 206.185 316.14 205.1L318.85 206.3L322.03 199.16L319.32 197.95C319.552 196.575 319.589 195.175 319.43 193.79L322.19 192.73ZM306.56 201.81C305.31 202.288 303.946 202.385 302.641 202.089C301.335 201.792 300.147 201.115 299.226 200.144C298.306 199.172 297.694 197.949 297.468 196.63C297.242 195.31 297.412 193.954 297.957 192.731C298.502 191.508 299.397 190.474 300.529 189.76C301.662 189.046 302.98 188.684 304.318 188.719C305.657 188.754 306.954 189.186 308.048 189.958C309.141 190.731 309.98 191.81 310.46 193.06C311.102 194.737 311.051 196.601 310.32 198.241C309.589 199.882 308.237 201.165 306.56 201.81Z" stroke="#C1AB65" stroke-opacity="0.56" stroke-miterlimit="10"/>
<path d="M319.649 64.8988C319.649 71.7088 317.63 78.3659 313.846 84.0281C310.062 89.6903 304.684 94.1033 298.393 96.7089C292.101 99.3145 285.177 99.9958 278.498 98.6665C271.819 97.3372 265.685 94.057 260.87 89.2409C256.055 84.4248 252.777 78.289 251.449 71.6096C250.122 64.9302 250.805 58.0071 253.413 51.716C256.02 45.4249 260.435 40.0484 266.098 36.2664C271.761 32.4844 278.419 30.4668 285.229 30.4688C289.751 30.4648 294.23 31.3527 298.408 33.0817C302.586 34.8107 306.383 37.3468 309.58 40.5449C312.777 43.7429 315.312 47.5401 317.04 51.7191C318.768 55.898 319.654 60.3767 319.649 64.8988Z" fill="#C1AB65" stroke="#C1AB65" stroke-opacity="0.56" stroke-miterlimit="10"/>
<path d="M286.616 64.7388C292.793 63.9759 297.182 58.3498 296.419 52.1725C295.656 45.9952 290.03 41.6059 283.853 42.3687C277.676 43.1316 273.286 48.7577 274.049 54.935C274.812 61.1124 280.438 65.5017 286.616 64.7388Z" fill="white"/>
<path d="M306.571 87.5675C300.491 92.3666 292.971 94.9769 285.226 94.9769C277.48 94.9769 269.961 92.3666 263.881 87.5675C266.081 77.8775 268.111 69.5675 270.211 67.3975C273.211 64.3975 281.101 62.6875 285.211 62.6875C289.321 62.6875 297.611 64.7875 299.141 66.3175C302.261 69.4375 304.951 78.0275 306.571 87.5675Z" fill="white"/>
<path d="M235.75 149.806V132.806C235.75 130.578 236.635 128.442 238.21 126.867C239.786 125.291 241.922 124.406 244.15 124.406H297.71C298.816 124.402 299.911 124.617 300.934 125.037C301.956 125.457 302.886 126.076 303.669 126.856C304.452 127.636 305.074 128.564 305.498 129.585C305.922 130.606 306.14 131.701 306.14 132.806V149.806C306.14 152.034 305.255 154.171 303.68 155.746C302.104 157.321 299.968 158.206 297.74 158.206H244.14C241.914 158.204 239.78 157.317 238.207 155.742C236.634 154.167 235.75 152.032 235.75 149.806Z" fill="#C1AB65"/>
<path d="M258.369 148.867L232.449 174.117L274.459 152.887" fill="#C1AB65"/>
<path d="M242.25 132.34V132.25C242.25 131.918 242.382 131.601 242.616 131.366C242.851 131.132 243.168 131 243.5 131H269.98C270.312 131 270.629 131.132 270.864 131.366C271.098 131.601 271.23 131.918 271.23 132.25V132.34C271.23 132.672 271.098 132.989 270.864 133.224C270.629 133.458 270.312 133.59 269.98 133.59H243.5C243.168 133.59 242.851 133.458 242.616 133.224C242.382 132.989 242.25 132.672 242.25 132.34Z" fill="white"/>
<path d="M272.42 132.34V132.25C272.42 131.918 272.552 131.601 272.786 131.366C273.02 131.132 273.338 131 273.67 131H296.78C297.111 131 297.429 131.132 297.664 131.366C297.898 131.601 298.03 131.918 298.03 132.25V132.34C298.03 132.672 297.898 132.989 297.664 133.224C297.429 133.458 297.111 133.59 296.78 133.59H273.67C273.338 133.59 273.02 133.458 272.786 133.224C272.552 132.989 272.42 132.672 272.42 132.34Z" fill="white"/>
<path d="M262.33 138.027V137.938C262.33 137.606 262.462 137.288 262.696 137.054C262.931 136.819 263.249 136.688 263.58 136.688H296.78C297.112 136.688 297.43 136.819 297.664 137.054C297.898 137.288 298.03 137.606 298.03 137.938V138.027C298.03 138.359 297.898 138.677 297.664 138.911C297.43 139.146 297.112 139.277 296.78 139.277H263.58C263.249 139.277 262.931 139.146 262.696 138.911C262.462 138.677 262.33 138.359 262.33 138.027Z" fill="white"/>
<path d="M242.25 138.027V137.938C242.25 137.606 242.382 137.288 242.616 137.054C242.851 136.819 243.168 136.688 243.5 136.688H258.33C258.662 136.688 258.979 136.819 259.214 137.054C259.448 137.288 259.58 137.606 259.58 137.938V138.027C259.58 138.359 259.448 138.677 259.214 138.911C258.979 139.146 258.662 139.277 258.33 139.277H243.5C243.168 139.277 242.851 139.146 242.616 138.911C242.382 138.677 242.25 138.359 242.25 138.027Z" fill="white"/>
<path d="M266.939 143.723V143.633C266.939 143.301 267.071 142.983 267.306 142.749C267.54 142.514 267.858 142.383 268.189 142.383H296.779C297.111 142.383 297.429 142.514 297.663 142.749C297.898 142.983 298.029 143.301 298.029 143.633V143.723C298.029 144.054 297.898 144.372 297.663 144.607C297.429 144.841 297.111 144.973 296.779 144.973H268.189C267.858 144.973 267.54 144.841 267.306 144.607C267.071 144.372 266.939 144.054 266.939 143.723Z" fill="white"/>
<path d="M242.25 143.723V143.633C242.25 143.301 242.382 142.983 242.616 142.749C242.851 142.514 243.168 142.383 243.5 142.383H263.25C263.582 142.383 263.899 142.514 264.134 142.749C264.368 142.983 264.5 143.301 264.5 143.633V143.723C264.5 144.054 264.368 144.372 264.134 144.607C263.899 144.841 263.582 144.973 263.25 144.973H243.5C243.168 144.973 242.851 144.841 242.616 144.607C242.382 144.372 242.25 144.054 242.25 143.723Z" fill="white"/>
<path d="M242.25 149.41V149.32C242.25 148.989 242.382 148.671 242.616 148.436C242.851 148.202 243.168 148.07 243.5 148.07H250.83C251.162 148.07 251.479 148.202 251.714 148.436C251.948 148.671 252.08 148.989 252.08 149.32V149.41C252.08 149.742 251.948 150.06 251.714 150.294C251.479 150.529 251.162 150.66 250.83 150.66H243.5C243.168 150.66 242.851 150.529 242.616 150.294C242.382 150.06 242.25 149.742 242.25 149.41Z" fill="white"/>
<path d="M254.67 149.41V149.32C254.67 148.989 254.802 148.671 255.036 148.436C255.27 148.202 255.588 148.07 255.92 148.07H296.78C297.111 148.07 297.429 148.202 297.664 148.436C297.898 148.671 298.03 148.989 298.03 149.32V149.41C298.03 149.742 297.898 150.06 297.664 150.294C297.429 150.529 297.111 150.66 296.78 150.66H255.92C255.588 150.66 255.27 150.529 255.036 150.294C254.802 150.06 254.67 149.742 254.67 149.41Z" fill="white"/>
<path d="M103.535 125.686C111.251 109.102 104.061 89.402 87.4768 81.6861C70.8922 73.9702 51.1927 81.1597 43.4768 97.7443C35.7609 114.329 42.9504 134.028 59.535 141.744C76.1196 149.46 95.8191 142.271 103.535 125.686Z" fill="#C1AB65"/>
<path d="M68.3489 135.562C72.5332 134.093 74.7341 129.51 73.2646 125.325C71.7952 121.141 67.2119 118.94 63.0276 120.41C58.8432 121.879 56.6424 126.462 58.1118 130.647C59.5812 134.831 64.1645 137.032 68.3489 135.562Z" fill="white"/>
<path d="M61.4896 130.861L61.0996 125.771L65.3196 122.891L69.9196 125.101L70.3096 130.191L66.0896 133.071L61.4896 130.861Z" fill="#C1AB65" fill-opacity="0.56"/>
<path d="M84.0141 103.029C88.1902 101.537 90.3654 96.941 88.8726 92.765C87.3799 88.5889 82.7844 86.4137 78.6083 87.9065C74.4322 89.3992 72.257 93.9947 73.7498 98.1708C75.2426 102.347 79.8381 104.522 84.0141 103.029Z" fill="white"/>
<path d="M77.3301 97.8628L77.6101 91.3928L82.4801 87.1328L87.0901 89.3428L86.8101 95.8128L81.9301 100.073L77.3301 97.8628Z" fill="#C1AB65" fill-opacity="0.56"/>
<path d="M71.2591 124.273L65.1191 121.273L69.6591 110.812C69.9491 110.142 70.2591 109.493 70.5991 108.812L75.9291 98.8125L82.0691 101.762L77.6891 112.072C77.3491 112.872 76.9791 113.653 76.5691 114.413L71.2591 124.273Z" fill="white"/>
<path d="M96.5098 129.539C97.6998 128.999 116.7 129.859 116.7 129.859L103 117.289L96.5098 129.539Z" fill="#C1AB65"/>
<path d="M180.375 55.7187C187.512 39.2191 179.922 20.0582 163.422 12.9216C146.923 5.78501 127.762 13.3752 120.625 29.8748C113.488 46.3744 121.079 65.5354 137.578 72.6719C154.078 79.8085 173.239 72.2183 180.375 55.7187Z" fill="#C1AB65"/>
<path d="M151.59 15.0625H149.42V42.4025H151.59V15.0625Z" fill="white"/>
<path d="M126.484 58.1767L127.719 59.9609L150.503 44.1902L149.268 42.4059L126.484 58.1767Z" fill="white"/>
<path d="M153.5 42.8125C153.5 43.4058 153.324 43.9859 152.994 44.4792C152.665 44.9726 152.196 45.3571 151.648 45.5841C151.1 45.8112 150.497 45.8706 149.915 45.7549C149.333 45.6391 148.798 45.3534 148.379 44.9338C147.959 44.5143 147.673 43.9797 147.558 43.3978C147.442 42.8158 147.501 42.2126 147.728 41.6645C147.955 41.1163 148.34 40.6477 148.833 40.3181C149.327 39.9884 149.907 39.8125 150.5 39.8125C151.296 39.8125 152.059 40.1286 152.621 40.6912C153.184 41.2538 153.5 42.0169 153.5 42.8125Z" fill="white"/>
<path d="M238.88 263.219C236.95 233.459 249.97 202.659 271.88 185.039C272.58 214.949 259.69 245.219 238.88 263.219Z" fill="#C1AB65" fill-opacity="0.56"/>
<path d="M268.321 193.047C259.035 210.371 251.056 228.364 244.451 246.877C236.381 269.447 230.031 293.427 216.211 312.347" stroke="#C1AB65" stroke-miterlimit="10" stroke-linecap="round"/>
<path d="M231.961 281.939C243.061 257.109 265.091 238.349 289.381 233.039C279.041 259.649 255.781 279.949 231.961 281.939Z" fill="#C1AB65" fill-opacity="0.56"/>
<path d="M283.421 238.508C266.834 253.108 249.964 267.294 232.811 281.068" stroke="#C1AB65" stroke-miterlimit="10" stroke-linecap="round"/>
<path d="M225.41 303.569C240.24 281.419 267.6 269.859 290.24 276.179C273.59 298.049 246.14 309.639 225.41 303.569Z" fill="#C1AB65" fill-opacity="0.56"/>
<path d="M284.811 277.812C265.662 289.853 244.74 298.809 222.811 304.353" stroke="#C1AB65" stroke-miterlimit="10" stroke-linecap="round"/>
<path d="M233.42 274.411C238.16 249.471 231.05 221.671 215.22 203.281C208.73 227.811 214.92 256.511 233.42 274.411Z" fill="#C1AB65" fill-opacity="0.56"/>
<path d="M216.85 209.641C219.785 232.341 225.595 254.576 234.14 275.811" stroke="#C1AB65" stroke-miterlimit="10" stroke-linecap="round"/>
<path d="M225.28 295.648C223.28 270.008 210.12 245.928 190.9 232.648C191.99 246.037 195.532 259.111 201.35 271.218C207.94 284.878 217.62 293.548 225.28 295.648Z" fill="#C1AB65" fill-opacity="0.56"/>
<path d="M193.75 237.812C201.145 258.889 211.956 278.605 225.75 296.172" stroke="#C1AB65" stroke-miterlimit="10" stroke-linecap="round"/>
<path d="M373.711 289.498C384.201 262.208 408.331 240.068 434.941 233.328C423.281 260.248 399.481 281.948 373.711 289.498Z" fill="#C1AB65" fill-opacity="0.56"/>
<path d="M428.489 239C413.174 250.648 398.748 263.42 385.329 277.21C368.949 294.03 353.499 312.79 333.529 324.01" stroke="#C1AB65" stroke-miterlimit="10" stroke-linecap="round"/>
<path d="M359.92 303.348C379.92 285.758 407.07 278.038 430.71 283.218C410.67 302.708 381.79 311.298 359.92 303.348Z" fill="#C1AB65" fill-opacity="0.56"/>
<path d="M423.2 285.672C402.533 291.912 381.806 297.665 361.02 302.932" stroke="#C1AB65" stroke-miterlimit="10" stroke-linecap="round"/>
<path d="M345.26 319.947C367.45 306.267 396.37 307.137 413.79 322.007C390.14 334.687 361.14 333.807 345.26 319.947Z" fill="#C1AB65" fill-opacity="0.56"/>
<path d="M408.341 321.209C386.49 324.12 364.316 323.556 342.641 319.539" stroke="#C1AB65" stroke-miterlimit="10" stroke-linecap="round"/>
<path d="M364.3 297.243C378.71 276.963 383.82 249.293 377.37 226.453C361.58 245.633 355.28 273.743 364.3 297.243Z" fill="#C1AB65" fill-opacity="0.56"/>
<path d="M376.2 232.812C369.48 254.224 365.499 276.401 364.35 298.812" stroke="#C1AB65" stroke-miterlimit="10" stroke-linecap="round"/>
<path d="M348.4 312.808C357.12 289.148 355.4 262.328 343.84 242.648C339.318 255.015 337.091 268.103 337.27 281.268C337.48 296.158 342.48 307.808 348.4 312.808Z" fill="#C1AB65" fill-opacity="0.56"/>
<path d="M344.22 248.461C342.119 270.237 343.595 292.211 348.59 313.511" stroke="#C1AB65" stroke-miterlimit="10" stroke-linecap="round"/>
<path d="M76.4106 241.808C65.7106 209.078 35.8706 182.648 1.14062 175.148C15.7506 203.448 42.2206 225.968 76.4106 241.808Z" fill="#C1AB65" fill-opacity="0.56"/>
<path d="M78.22 246.859C66.4062 240.285 53.3703 236.202 39.9169 234.862C26.4636 233.522 12.8784 234.954 0 239.069C24.2356 251.171 52.0737 253.944 78.22 246.859Z" fill="#C1AB65" fill-opacity="0.56"/>
<path d="M84.7005 253.958C59.3805 250.448 32.8705 256.688 12.3105 270.958C35.6205 279.468 63.5905 273.968 84.7005 253.958Z" fill="#C1AB65" fill-opacity="0.56"/>
<path d="M92.5909 269.454C67.5209 269.354 42.8709 281.264 28.1309 300.614C39.3341 302.84 50.9523 301.534 61.3809 296.874C71.6109 292.244 80.1909 284.324 92.5909 269.454Z" fill="#C1AB65" fill-opacity="0.56"/>
<path d="M110.271 295.377C85.5409 291.137 59.2109 298.797 41.3809 315.377C52.0724 319.421 63.7536 320.057 74.8209 317.197C85.7009 314.357 95.5109 307.977 110.271 295.377Z" fill="#C1AB65" fill-opacity="0.56"/>
<path d="M83.5801 243.341C67.2501 221.341 62.8201 191.681 72.1001 166.461C79.1801 178.461 85.2901 191.131 88.1001 204.611C90.9101 218.091 90.4401 232.461 83.5801 243.341Z" fill="#C1AB65" fill-opacity="0.56"/>
<path d="M93.5502 264.567C91.708 252.831 92.6487 240.826 96.2963 229.52C99.9439 218.214 106.197 207.923 114.55 199.477C116.5 223.667 109.14 248.307 93.5502 264.567Z" fill="#C1AB65" fill-opacity="0.56"/>
<path d="M8.75 181.008C58.44 212.798 97.29 260.178 117.8 314.008" stroke="#C1AB65" stroke-miterlimit="10" stroke-linecap="round"/>
<path d="M73.6406 178.062C79.6908 202.56 83.3744 227.581 84.6406 252.783" stroke="#C1AB65" stroke-miterlimit="10" stroke-linecap="round"/>
<path d="M110.85 208.969C108.839 228.855 102.756 248.115 92.9805 265.549" stroke="#C1AB65" stroke-miterlimit="10" stroke-linecap="round"/>
<path d="M10.4609 239.641C33.2425 243.963 56.3554 246.305 79.5409 246.641" stroke="#C1AB65" stroke-miterlimit="10" stroke-linecap="round"/>
<path d="M24.1406 269.047C45.0999 267.52 65.6481 262.448 84.9106 254.047" stroke="#C1AB65" stroke-miterlimit="10" stroke-linecap="round"/>
<path d="M36.7695 297.078L94.9095 268.078" stroke="#C1AB65" stroke-miterlimit="10" stroke-linecap="round"/>
<path d="M49.3691 314.153C74.6791 309.263 82.1891 303.443 110.279 295.383" stroke="#C1AB65" stroke-miterlimit="10" stroke-linecap="round"/>
<path d="M209.559 267.812C209.559 267.812 211.749 287.882 214.199 289.492C218.579 292.382 269.279 299.062 269.279 299.062L267.619 312.253C267.619 312.253 198.179 318.492 195.229 315.022C190.109 309.022 181.109 279.962 181.109 279.962L209.559 267.812Z" fill="#E06A58"/>
<path d="M176.08 216.126L181.69 202.656C181.69 202.656 196.91 209.806 201.93 218.656C207.3 228.096 213.87 278.286 213.87 278.286C213.87 278.286 187 284.476 182.06 281.846C177.12 279.216 176.08 216.126 176.08 216.126Z" fill="#F2AE30"/>
<path d="M133.351 153.61C129.421 152.17 125.261 150.91 121.051 151.23C116.841 151.55 112.541 153.81 111.141 157.48C110.141 160.1 110.591 163.19 108.981 165.55C107.371 167.91 104.381 168.75 101.521 168.94C98.6608 169.13 95.7608 168.76 92.9108 169.13C84.1108 170.3 77.8308 179.86 80.7208 187.69C81.8708 190.81 84.2308 193.79 83.7208 197.04C83.1508 200.52 79.5008 202.81 78.0008 206.04C76.0008 210.34 78.3908 215.55 82.3208 218.48C86.2508 221.41 91.3208 222.48 96.3208 223.25C103.151 224.25 110.201 224.75 116.951 223.31C123.701 221.87 130.151 218.31 133.641 212.75C135.191 210.29 136.131 207.51 137.931 205.2C141.651 200.43 148.241 198.58 153.431 195.2C159.101 191.49 163.261 184.27 159.921 178.62C156.701 173.19 148.321 171.98 144.921 166.62C143.531 164.41 143.201 161.78 142.301 159.37C141.401 156.96 139.141 155.74 133.351 153.61Z" fill="#0A2240"/>
<path d="M156.251 220.221C157.251 221.361 158.411 222.611 160.031 222.721C161.651 222.831 163.171 221.631 164.271 220.461C169.833 214.63 173.644 207.353 175.271 199.461C173.861 198.661 172.501 197.891 171.271 197.171C170.176 196.539 169.305 195.581 168.781 194.431C168.443 193.615 168.316 192.728 168.411 191.851C168.919 185.247 170.315 178.742 172.561 172.511C160.021 169.681 148.191 166.321 141.391 160.641C140.561 164.141 139.581 170.991 137.491 177.781C135.261 184.971 131.781 192.081 125.881 195.141C137.272 201.835 147.523 210.301 156.251 220.221Z" fill="#F9A07B"/>
<path d="M168.359 191.858C168.264 192.736 168.391 193.623 168.729 194.438C161.309 203.438 144.729 191.678 137.439 177.788C139.529 170.998 140.509 164.148 141.339 160.648C148.129 166.328 159.969 169.648 172.509 172.518C170.263 178.749 168.867 185.255 168.359 191.858Z" fill="#E06A58"/>
<path d="M189.019 300.657C187.379 311.517 199.099 323.207 199.389 329.007C174.499 329.007 122.389 330.527 95.8094 326.917C94.5994 320.217 107.709 305.147 107.709 290.267C107.709 288.267 107.629 286.137 107.469 283.817C107.049 277.177 106.069 269.277 104.979 261.177C101.979 239.447 98.0794 216.177 100.979 211.387C106.679 201.997 119.979 195.617 126.619 192.877C128.889 191.937 130.369 191.427 130.479 191.367C138.769 205.507 155.639 217.567 162.009 217.027C163.779 216.887 169.009 215.027 172.499 197.587C173.849 198.357 175.199 199.067 176.499 199.757C183.089 203.187 189.269 206.017 191.049 210.427C195.749 222.037 200.359 251.307 199.339 261.717C198.319 272.127 194.139 280.237 191.139 290.807C190.449 293.277 189.819 295.897 189.309 298.717C189.219 299.317 189.139 299.977 189.019 300.657Z" fill="#FFC73C"/>
<path d="M199.389 329.01C174.499 329.01 122.389 330.53 95.8094 326.92C94.5994 320.22 107.709 305.15 107.709 290.27C107.709 288.27 107.629 286.14 107.469 283.82C107.049 277.18 106.069 269.28 104.979 261.18C109.689 266.18 116.559 245.18 119.599 251.3C136.049 284.5 149.019 293.23 171.599 293.23C178.184 293.17 184.739 292.358 191.139 290.81C190.449 293.28 189.819 295.9 189.309 298.72C189.189 299.387 189.079 300.054 188.979 300.72C187.379 311.51 199.139 323.2 199.389 329.01Z" fill="#FFBB33"/>
<path d="M176.551 199.812C175.481 207.582 172.311 218.052 163.091 220.812C150.631 224.542 132.601 201.262 126.631 192.932C128.901 191.992 130.381 191.482 130.491 191.422C138.781 205.562 155.651 217.622 162.021 217.082C163.791 216.942 169.021 215.082 172.511 197.642C173.861 198.352 175.211 199.062 176.551 199.812Z" fill="#FCE172"/>
<path d="M181.67 317.318L181.58 325.988L336.58 326.908L336.9 317.078L181.67 317.318Z" fill="#325F73"/>
<path d="M403.76 239.967L400.31 236.467L287.41 235.727L230.77 317.637L233.73 320.017L403.76 239.967Z" fill="#325F73"/>
<path d="M289.59 238.758L233.73 320.018L340.43 320.548L403.76 239.968L289.59 238.758Z" fill="#0B2D50"/>
<path d="M316.551 290.631C323.41 290.631 328.971 287.851 328.971 284.421C328.971 280.991 323.41 278.211 316.551 278.211C309.691 278.211 304.131 280.991 304.131 284.421C304.131 287.851 309.691 290.631 316.551 290.631Z" fill="#3C738C"/>
<path d="M206.533 162.765C208.294 153.323 204.672 144.728 198.445 143.567C192.217 142.406 185.742 149.119 183.982 158.561C182.222 168.002 185.843 176.597 192.071 177.758C198.298 178.919 204.773 172.206 206.533 162.765Z" fill="#0B2D50"/>
<path d="M206.531 133.113C205.371 141.333 201.701 150.393 196.351 160.403C194.471 152.203 193.271 142.213 191.611 132.223C189.951 122.233 187.771 112.223 184.041 104.023C183.23 102.257 182.315 100.54 181.301 98.8828C183.512 98.6776 185.742 98.8775 187.881 99.4728C191.226 100.378 194.309 102.06 196.881 104.383C201.045 108.279 204.076 113.231 205.651 118.713C207.031 123.384 207.332 128.308 206.531 133.113Z" fill="#0B2D50"/>
<path d="M200.249 141.607C200.189 143.227 200.079 144.877 199.929 146.517C197.649 173.117 186.479 191.367 169.389 191.367C145.259 191.367 129.619 164.307 129.619 137.797C129.619 111.647 145.619 92.7167 164.389 94.9067C175.199 96.1467 183.099 99.7367 188.709 104.997C192.371 108.494 195.183 112.784 196.929 117.537C199.04 123.328 200.159 129.433 200.239 135.597C200.239 135.597 200.239 135.597 200.239 135.657C200.339 137.597 200.319 139.577 200.249 141.607Z" fill="#F9A07B"/>
<path d="M200.25 141.609C199.541 139.016 198.446 136.545 197 134.279C182.474 141.84 165.893 144.502 149.73 141.869L140.67 149.439C140.73 137.339 140.9 129.149 145.62 123.289C150.05 117.789 157.44 115.719 164.44 114.819C172.326 113.783 180.317 113.834 188.19 114.969C191.245 115.264 194.216 116.144 196.94 117.559C199.051 123.35 200.17 129.455 200.25 135.619C200.25 135.619 200.25 135.619 200.25 135.679C200.34 137.599 200.32 139.579 200.25 141.609Z" fill="#E06A58"/>
<path d="M203.73 125.233C200.084 128.189 195.993 130.552 191.61 132.233C178.35 137.583 161.12 139.353 147.69 138.703C141.09 153.203 138.42 158.403 136.69 171.053C130.24 165.003 124.99 153.923 123.43 145.213C121.779 136.476 122.121 127.479 124.43 118.893C125.94 113.704 128.502 108.883 131.957 104.728C135.411 100.573 139.684 97.174 144.51 94.7425C145.906 93.9856 147.349 93.3176 148.83 92.7425C157.34 89.4525 166.93 89.7425 175.66 92.4225C180.179 93.8479 184.326 96.2593 187.8 99.4825C194.61 105.633 198.8 113.963 201.54 120.203C202.47 122.113 203.14 123.813 203.73 125.233Z" fill="#0B2D50"/>
<path d="M206.53 133.108C205.995 130.208 205.146 127.375 204 124.658C203.338 123.102 202.541 121.606 201.62 120.188C198.686 115.36 194.175 111.693 188.85 109.808C187.405 107.767 185.8 105.844 184.05 104.058C178.518 98.2873 171.266 94.4632 163.38 93.1581C157.083 92.159 150.637 92.7082 144.6 94.7581C145.996 94.0012 147.439 93.3332 148.92 92.7581C157.43 89.4681 167.02 89.7581 175.75 92.4381C180.269 93.8635 184.416 96.2749 187.89 99.4981C191.234 100.403 194.318 102.086 196.89 104.408C201.054 108.305 204.085 113.257 205.66 118.738C207.027 123.402 207.324 128.314 206.53 133.108Z" fill="#225570"/>
<path d="M155.381 149.42C159.841 146.87 164.471 145.72 170.961 148.09" stroke="#0B2D50" stroke-width="2" stroke-miterlimit="10" stroke-linecap="round"/>
<path d="M185.92 149.24C189.74 146.39 195.4 146.1 198.35 149.24" stroke="#0B2D50" stroke-width="2" stroke-miterlimit="10" stroke-linecap="round"/>
<path d="M181.309 163.812C181.699 165.812 181.489 170.303 180.529 172.312" stroke="#CC454E" stroke-width="2" stroke-miterlimit="10" stroke-linecap="round"/>
<path d="M166.24 165.144C167.257 165.144 168.08 163.845 168.08 162.244C168.08 160.642 167.257 159.344 166.24 159.344C165.224 159.344 164.4 160.642 164.4 162.244C164.4 163.845 165.224 165.144 166.24 165.144Z" fill="#262D40"/>
<path d="M190.289 163.792C191.305 163.792 192.129 162.494 192.129 160.892C192.129 159.291 191.305 157.992 190.289 157.992C189.273 157.992 188.449 159.291 188.449 160.892C188.449 162.494 189.273 163.792 190.289 163.792Z" fill="#262D40"/>
<path d="M179.03 176.229C178.735 176.801 178.401 177.353 178.03 177.879C176.698 179.814 174.802 181.291 172.6 182.109C171.474 182.476 170.275 182.555 169.11 182.339C165.35 181.669 164.36 178.199 164.18 175.529C164.156 175.049 164.156 174.569 164.18 174.089C164.187 173.487 164.234 172.885 164.32 172.289C170.22 175.589 179.03 176.229 179.03 176.229Z" fill="#CC454E"/>
<path d="M179.031 176.229C178.735 176.801 178.401 177.353 178.031 177.879C174.971 177.879 168.711 176.269 164.141 174.089C164.147 173.487 164.194 172.885 164.281 172.289C170.221 175.589 179.031 176.229 179.031 176.229Z" fill="white"/>
<path d="M172.539 182.103C171.413 182.47 170.213 182.549 169.049 182.333C165.289 181.663 164.299 178.193 164.119 175.523C165.992 175.739 167.77 176.467 169.256 177.628C170.741 178.789 171.878 180.338 172.539 182.103Z" fill="#E8729B"/>
<path d="M136.789 144.812C136.909 136.288 138.604 127.859 141.789 119.952C148.299 104.402 161.569 97.7517 174.439 97.3017C179.087 97.1917 183.71 98.0067 188.039 99.6994C192.369 101.392 196.319 103.929 199.659 107.162C199.659 107.162 194.609 98.2517 184.659 95.6917C178.119 94.0117 168.249 93.6917 160.329 96.9617C152.169 100.272 141.999 109.462 138.329 119.172C134.659 128.882 132.869 144.002 132.869 144.002L136.789 144.812Z" fill="#3D86E0"/>
<path d="M134.905 176.651C141.515 175.983 146.053 167.321 145.042 157.305C144.03 147.288 137.851 139.709 131.241 140.377C124.63 141.045 120.092 149.706 121.103 159.723C122.115 169.739 128.294 177.318 134.905 176.651Z" fill="#56C4F9"/>
<path d="M133.494 174.052C137.781 173.408 140.338 166.771 139.204 159.229C138.07 151.686 133.675 146.095 129.388 146.739C125.101 147.384 122.544 154.02 123.678 161.563C124.812 169.105 129.207 174.697 133.494 174.052Z" fill="#0B2D50"/>
<path d="M174.52 191.739C178.077 191.739 180.96 189.943 180.96 187.729C180.96 185.514 178.077 183.719 174.52 183.719C170.963 183.719 168.08 185.514 168.08 187.729C168.08 189.943 170.963 191.739 174.52 191.739Z" fill="#3A92C9"/>
<path d="M142.141 174.32C142.141 174.32 151.601 186.48 168.051 187.73" stroke="#3A92C9" stroke-width="2" stroke-miterlimit="10" stroke-linecap="round"/>
<path d="M181.58 294.169L180.96 310.169C180.96 310.169 123.14 327.489 113.58 322.009C108.92 319.329 104.58 304.589 101.32 290.199C97.9202 275.079 95.7402 260.359 95.7402 260.359L129.64 253.719C129.64 253.719 129.64 274.389 130.81 286.339C131.22 290.789 131.81 294.029 132.6 294.559C135.59 296.529 181.58 294.169 181.58 294.169Z" fill="#F9A07B"/>
<path d="M130.81 286.321C124.65 288.321 112.81 291.411 101.32 290.191C97.9202 275.071 95.7402 260.351 95.7402 260.351L129.64 253.711C129.64 253.711 129.66 274.371 130.81 286.321Z" fill="#E06A58"/>
<path d="M179.931 294.333C188.531 292.493 203.091 288.073 209.131 286.553C213.421 285.473 224.591 291.253 227.541 296.703C228.831 299.083 230.051 312.563 225.541 311.173C223.301 310.473 223.671 304.693 222.971 302.333C222.401 300.413 220.581 298.553 217.811 296.953C219.661 301.563 219.591 305.583 219.391 310.563C219.43 311.665 219.211 312.761 218.751 313.763C218.515 314.25 218.115 314.639 217.621 314.86C217.127 315.081 216.571 315.121 216.051 314.973C215.051 314.553 214.681 313.283 214.451 312.173C213.547 308.22 212.909 304.211 212.541 300.173C212.621 304.443 212.541 308.723 212.261 312.983C212.061 316.243 210.441 318.033 208.451 317.463C207.561 317.213 207.201 316.393 206.821 315.313C206.221 317.403 204.721 319.713 202.821 318.833C201.641 318.303 200.911 314.043 201.121 309.663C197.247 311.929 192.848 313.139 188.361 313.173C184.021 313.373 179.581 312.563 176.971 309.613C177.437 304.433 178.429 299.313 179.931 294.333Z" fill="#F9A07B"/>
<path d="M206.951 314.63C207.242 311.168 206.941 307.681 206.061 304.32" stroke="#CC454E" stroke-miterlimit="10" stroke-linecap="round"/>
<path d="M125.829 220.18C123.369 213.25 114.359 199.07 114.359 199.07C114.359 199.07 100.609 204.79 95.7293 214.5C87.4693 230.94 91.6693 278.14 91.6693 278.14C102.799 282.8 125.139 282.87 134.669 281.53C134.649 281.53 130.759 234.03 125.829 220.18Z" fill="#FFC73C"/>
<path d="M127.58 223.078C131.146 239.898 133.287 256.988 133.98 274.168" stroke="#F2AE30" stroke-miterlimit="10" stroke-linecap="round"/>
<path d="M421.88 324.062H27.5996V333.953H421.88V324.062Z" fill="#0B2D50"/>
</svg>
