<svg width="21" height="28" viewBox="0 0 21 28" fill="none" xmlns="http://www.w3.org/2000/svg">
<mask id="path-1-inside-1_993_577" fill="white">
<path d="M10.5 18.0857L11.0675 18.6532C11.0656 18.6701 11.0576 18.6839 11.0576 18.7017V19.5229H9.94137V18.7017C9.94137 18.6849 9.93345 18.6701 9.93147 18.6532L10.5 18.0857ZM10.4069 20.5133H10.5931L11.4102 26.6394H9.59075L10.4069 20.5133ZM20.0105 22.3338V26.6394H16.7885V25.1022C16.7885 24.4356 17.0361 23.7977 17.4858 23.3055L18.1445 22.5834C18.1883 22.5354 18.2223 22.4793 18.2444 22.4181C18.2665 22.357 18.2764 22.2921 18.2734 22.2272C18.2705 22.1623 18.2548 22.0986 18.2272 22.0397C18.1997 21.9808 18.1608 21.928 18.1128 21.8841C18.0648 21.8403 18.0086 21.8063 17.9475 21.7842C17.8864 21.7621 17.8215 21.7522 17.7566 21.7552C17.6916 21.7581 17.6279 21.7738 17.5691 21.8014C17.5102 21.8289 17.4573 21.8678 17.4135 21.9158L16.7548 22.6379C16.139 23.3107 15.798 24.1901 15.799 25.1022V26.6394H12.4106L11.5925 20.5064C11.7162 20.4979 11.8321 20.4429 11.917 20.3526C12.0018 20.2622 12.0494 20.1431 12.0501 20.0191V19.6348L12.784 20.3687C12.8301 20.4147 12.8848 20.4511 12.945 20.4759C13.0051 20.5007 13.0696 20.5134 13.1347 20.5133L13.1624 20.5123C13.232 20.5086 13.3 20.4902 13.362 20.4583C13.424 20.4263 13.4785 20.3816 13.5219 20.3271L15.3583 18.0322L18.7189 20.0488C19.1118 20.2872 19.4369 20.6226 19.6631 21.0227C19.8892 21.4228 20.0089 21.8742 20.0105 22.3338ZM14.5897 17.4052L13.0911 19.2782L11.3449 17.532L13.6963 16.4128L14.5897 17.4052ZM7.30276 16.4128L9.65414 17.532L7.90793 19.2782L6.40935 17.4052L7.30276 16.4128ZM0.989485 22.3338C0.989485 21.4038 1.48472 20.5282 2.28304 20.0488L5.64371 18.0322L7.48005 20.3271C7.52366 20.3815 7.5782 20.426 7.64014 20.4579C7.70208 20.4898 7.77003 20.5084 7.83959 20.5123L7.86733 20.5133C7.99807 20.5133 8.12485 20.4608 8.21795 20.3687L8.95189 19.6348V20.0191C8.95189 20.2796 9.15395 20.4866 9.40949 20.5064L8.59037 26.6394H5.20196V25.1022C5.20196 24.188 4.86223 23.3124 4.24616 22.6379L3.58749 21.9158C3.54366 21.8678 3.4908 21.8289 3.43194 21.8014C3.37307 21.7738 3.30936 21.7581 3.24442 21.7552C3.17949 21.7522 3.11461 21.7621 3.05349 21.7842C2.99238 21.8063 2.93622 21.8403 2.88822 21.8841C2.84022 21.928 2.80133 21.9808 2.77376 22.0397C2.7462 22.0986 2.73049 22.1623 2.72755 22.2272C2.72461 22.2921 2.73448 22.357 2.75661 22.4181C2.77874 22.4793 2.81269 22.5354 2.85653 22.5834L3.51519 23.3055C3.96486 23.7977 4.21248 24.4366 4.21248 25.1022V26.6394H0.989485V22.3338Z"/>
</mask>
<path d="M21 22.3338L21.5 22.3338L21.5 22.3325L21 22.3338ZM19.2251 19.2L19.4834 18.7718L19.4823 18.7712L19.2251 19.2ZM15.5574 16.9991L15.1857 17.3336L15.2358 17.3893L15.3001 17.4279L15.5574 16.9991ZM14.1846 15.4738L14.5562 15.1393L14.5545 15.1375L14.1846 15.4738ZM14.039 15.3916H13.539V15.6951L13.8083 15.8352L14.039 15.3916ZM6.96005 15.3906L7.19763 15.8306L7.46005 15.6888V15.3906H6.96005ZM6.81445 15.4728L6.44448 15.1365L6.44281 15.1383L6.81445 15.4728ZM5.44166 16.9981L5.69892 17.4269L5.76318 17.3883L5.81331 17.3326L5.44166 16.9981ZM1.77394 19.199L1.51667 18.7702L1.51532 18.771L1.77394 19.199ZM3.30346e-06 22.3328L-0.499997 22.3313V22.3328H3.30346e-06ZM3.30346e-06 27.1346L0.500003 27.1364V27.1346H3.30346e-06ZM10.8764 14.2664L10.3764 14.2652V14.2664H10.8764ZM10.8764 16.6594L11.0904 17.1113L11.3764 16.9758V16.6594H10.8764ZM10.5 16.8377L10.285 17.2891L10.4994 17.3912L10.714 17.2895L10.5 16.8377ZM10.1256 16.6594H9.6256V16.9751L9.91063 17.1108L10.1256 16.6594ZM10.1256 14.2664L10.6256 14.2664L10.6256 14.2652L10.1256 14.2664ZM13.0495 14.0396L13.5495 14.0396L13.5495 14.0391L13.0495 14.0396ZM13.0495 15.6234L13.2643 16.0749L13.5495 15.9392V15.6234H13.0495ZM11.8649 16.1869H11.3649V16.9785L12.0797 16.6384L11.8649 16.1869ZM9.13513 16.1869L8.92032 16.6384L9.63513 16.9785V16.1869H9.13513ZM7.95052 15.6234H7.45052V15.9392L7.73572 16.0749L7.95052 15.6234ZM7.95052 14.0396L8.45052 14.0396L8.45052 14.0395L7.95052 14.0396ZM0.494249 28.1299H20.5048V27.1299H0.494249V28.1299ZM20.5048 28.1299C20.7687 28.1299 21.0219 28.025 21.2085 27.8384L20.5014 27.1313C20.5023 27.1304 20.5035 27.1299 20.5048 27.1299V28.1299ZM21.2085 27.8384C21.3951 27.6517 21.5 27.3986 21.5 27.1346H20.5C20.5 27.1334 20.5005 27.1322 20.5014 27.1313L21.2085 27.8384ZM21.5 27.1346V22.3338H20.5V27.1346H21.5ZM21.5 22.3325C21.4981 21.6157 21.3115 20.9116 20.9582 20.2879L20.0881 20.7807C20.3567 21.2549 20.4985 21.7902 20.5 22.3352L21.5 22.3325ZM20.9582 20.2879C20.605 19.6642 20.0971 19.1421 19.4834 18.7718L18.9668 19.6281C19.4334 19.9096 19.8196 20.3066 20.0881 20.7807L20.9582 20.2879ZM19.4823 18.7712L15.8146 16.5704L15.3001 17.4279L18.9678 19.6287L19.4823 18.7712ZM15.929 16.6646L14.5562 15.1393L13.8129 15.8083L15.1857 17.3336L15.929 16.6646ZM14.5545 15.1375C14.4706 15.0452 14.3788 14.9973 14.3284 14.9736C14.3053 14.9627 14.2803 14.9523 14.2737 14.9495C14.2623 14.9446 14.2642 14.9451 14.2696 14.948L13.8083 15.8352C13.824 15.8434 13.8384 15.8502 13.8503 15.8556C13.862 15.861 13.8727 15.8656 13.8803 15.8689C13.884 15.8704 13.8881 15.8722 13.8907 15.8733C13.8937 15.8745 13.8959 15.8755 13.8978 15.8763C13.9018 15.878 13.9029 15.8786 13.9026 15.8784C13.9022 15.8782 13.891 15.873 13.8752 15.8626C13.8585 15.8515 13.8367 15.8345 13.8146 15.8101L14.5545 15.1375ZM14.539 15.3916V14.3526H13.539V15.3916H14.539ZM6.46005 14.3516V15.3906H7.46005V14.3516H6.46005ZM6.72248 14.9506C6.73007 14.9465 6.73365 14.9453 6.72389 14.9495C6.72021 14.9511 6.69369 14.9622 6.67246 14.9721C6.62338 14.995 6.52975 15.0427 6.44448 15.1365L7.18442 15.8091C7.16161 15.8342 7.13904 15.8517 7.12187 15.863C7.11353 15.8685 7.10666 15.8724 7.10208 15.8748C7.09757 15.8773 7.09475 15.8786 7.09462 15.8786C7.09451 15.8787 7.09488 15.8785 7.0959 15.8781C7.09694 15.8776 7.0984 15.877 7.10058 15.876C7.10285 15.8751 7.10525 15.874 7.10865 15.8726C7.11177 15.8712 7.11584 15.8695 7.12007 15.8677C7.12852 15.864 7.13999 15.859 7.15271 15.8531C7.16558 15.8471 7.1809 15.8396 7.19763 15.8306L6.72248 14.9506ZM6.44281 15.1383L5.07001 16.6637L5.81331 17.3326L7.1861 15.8073L6.44281 15.1383ZM5.18439 16.5694L1.51667 18.7702L2.0312 19.6277L5.69892 17.4269L5.18439 16.5694ZM1.51532 18.771C0.902106 19.1417 0.394604 19.6639 0.0416468 20.2874L0.911897 20.78C1.18031 20.3058 1.56624 19.9087 2.03256 19.6269L1.51532 18.771ZM0.0416468 20.2874C-0.31131 20.9109 -0.49784 21.6148 -0.499994 22.3313L0.500001 22.3343C0.501639 21.7895 0.643488 21.2542 0.911897 20.78L0.0416468 20.2874ZM-0.499997 22.3328V27.1346H0.500003V22.3328H-0.499997ZM-0.499993 27.1328C-0.501991 27.6841 -0.0549144 28.1299 0.494249 28.1299V27.1299C0.49409 27.1299 0.495161 27.1299 0.496466 27.1305C0.497439 27.1309 0.497874 27.1313 0.498039 27.1315C0.498207 27.1316 0.498705 27.1322 0.49922 27.1334C0.499491 27.134 0.499714 27.1348 0.499858 27.1355C0.500007 27.1362 0.499999 27.1366 0.5 27.1364L-0.499993 27.1328ZM10.4396 13.9173C10.3981 14.0286 10.3767 14.1464 10.3764 14.2652L11.3764 14.2677L11.3765 14.2669L10.4396 13.9173ZM10.3764 14.2664V16.6594H11.3764V14.2664H10.3764ZM10.6623 16.2075L10.286 16.3858L10.714 17.2895L11.0904 17.1113L10.6623 16.2075ZM10.715 16.3862L10.3406 16.208L9.91063 17.1108L10.285 17.2891L10.715 16.3862ZM10.6256 16.6594V14.2664H9.6256V16.6594H10.6256ZM10.6256 14.2652C10.6253 14.1464 10.6039 14.0286 10.5623 13.9173L9.62547 14.2669L9.6256 14.2677L10.6256 14.2652ZM13.1333 13.1335C12.9591 13.2125 12.8113 13.34 12.7078 13.5008L13.5486 14.0422C13.548 14.0431 13.5471 14.0439 13.5461 14.0443L13.1333 13.1335ZM12.7078 13.5008C12.6043 13.6616 12.5493 13.8488 12.5495 14.0401L13.5495 14.0391C13.5495 14.0402 13.5492 14.0413 13.5486 14.0422L12.7078 13.5008ZM12.5495 14.0396V15.6234H13.5495V14.0396H12.5495ZM12.8347 15.1719L11.6501 15.7354L12.0797 16.6384L13.2643 16.0749L12.8347 15.1719ZM12.3649 16.1869V14.3556H11.3649V16.1869H12.3649ZM8.63513 14.3556V16.1869H9.63513V14.3556H8.63513ZM9.34994 15.7354L8.16533 15.1719L7.73572 16.0749L8.92032 16.6384L9.34994 15.7354ZM8.45052 15.6234V14.0396H7.45052V15.6234H8.45052ZM8.45052 14.0395C8.45047 13.8485 8.39546 13.6615 8.29204 13.5009L7.45128 14.0423C7.45079 14.0415 7.45052 14.0406 7.45052 14.0397L8.45052 14.0395ZM8.29204 13.5009C8.18863 13.3403 8.04119 13.2129 7.86732 13.1338L7.45332 14.0441C7.45248 14.0437 7.45178 14.0431 7.45128 14.0423L8.29204 13.5009ZM10.5 18.0857L11.2071 17.3786L10.5006 16.6721L9.79351 17.378L10.5 18.0857ZM11.0675 18.6532L12.0607 18.7701L12.1173 18.2888L11.7746 17.9461L11.0675 18.6532ZM11.0576 19.5229V20.5229H12.0576V19.5229H11.0576ZM9.94137 19.5229H8.94137V20.5229H9.94137V19.5229ZM9.93147 18.6532L9.22498 17.9455L8.88163 18.2882L8.93832 18.7701L9.93147 18.6532ZM10.4069 20.5133V19.5133H9.53129L9.41565 20.3813L10.4069 20.5133ZM10.5931 20.5133L11.5843 20.3811L11.4686 19.5133H10.5931V20.5133ZM11.4102 26.6394V27.6394H12.5525L12.4015 26.5072L11.4102 26.6394ZM9.59075 26.6394L8.5995 26.5073L8.44869 27.6394H9.59075V26.6394ZM20.0105 22.3338H21.0105L21.0105 22.3302L20.0105 22.3338ZM20.0105 26.6394V27.6394H21.0105V26.6394H20.0105ZM16.7885 26.6394H15.7885V27.6394H16.7885V26.6394ZM17.4858 23.3055L18.2241 23.9799L18.2246 23.9794L17.4858 23.3055ZM18.1445 22.5834L17.4061 21.909L17.4057 21.9095L18.1445 22.5834ZM17.4135 21.9158L16.6751 21.2415L16.6747 21.2419L17.4135 21.9158ZM16.7548 22.6379L17.4925 23.313L17.4936 23.3118L16.7548 22.6379ZM15.799 25.1022H16.799L16.799 25.101L15.799 25.1022ZM15.799 26.6394V27.6394H16.799V26.6394H15.799ZM12.4106 26.6394L11.4194 26.7716L11.5352 27.6394H12.4106V26.6394ZM11.5925 20.5064L11.524 19.5087L10.4603 19.5818L10.6013 20.6386L11.5925 20.5064ZM12.0501 20.0191L13.0501 20.0248V20.0191H12.0501ZM12.0501 19.6348L12.7572 18.9277L11.0501 17.2206V19.6348H12.0501ZM12.784 20.3687L12.0769 21.0758L12.0778 21.0767L12.784 20.3687ZM13.1347 20.5133L13.1364 21.5133L13.1534 21.5133L13.1704 21.5127L13.1347 20.5133ZM13.1624 20.5123L13.1981 21.5117L13.2069 21.5114L13.2156 21.5109L13.1624 20.5123ZM13.5219 20.3271L12.7411 19.7023L12.7398 19.704L13.5219 20.3271ZM15.3583 18.0322L15.8728 17.1747L15.1235 16.7251L14.5775 17.4074L15.3583 18.0322ZM18.7189 20.0488L19.2378 19.1939L19.2335 19.1913L18.7189 20.0488ZM14.5897 17.4052L15.3705 18.03L15.9008 17.3671L15.3329 16.7362L14.5897 17.4052ZM13.0911 19.2782L12.384 19.9853L13.1739 20.7753L13.8719 19.9029L13.0911 19.2782ZM11.3449 17.532L10.9151 16.6291L9.63638 17.2377L10.6378 18.2391L11.3449 17.532ZM13.6963 16.4128L14.4395 15.7437L13.9402 15.1891L13.2665 15.5098L13.6963 16.4128ZM7.30276 16.4128L7.73254 15.5098L7.05878 15.1891L6.55954 15.7437L7.30276 16.4128ZM9.65414 17.532L10.3612 18.2391L11.3626 17.2377L10.0839 16.6291L9.65414 17.532ZM7.90793 19.2782L7.12711 19.9029L7.82507 20.7753L8.61504 19.9853L7.90793 19.2782ZM6.40935 17.4052L5.66613 16.7362L5.09816 17.3671L5.62852 18.03L6.40935 17.4052ZM2.28304 20.0488L1.76851 19.1913L1.76823 19.1915L2.28304 20.0488ZM5.64371 18.0322L6.42452 17.4074L5.87853 16.7251L5.12918 17.1747L5.64371 18.0322ZM7.48005 20.3271L6.69925 20.9519L6.70013 20.953L7.48005 20.3271ZM7.83959 20.5123L7.78278 21.5107L7.79333 21.5113L7.80389 21.5117L7.83959 20.5123ZM7.86733 20.5133L7.83163 21.5127L7.84947 21.5133H7.86733V20.5133ZM8.21795 20.3687L8.92128 21.0796L8.92506 21.0758L8.21795 20.3687ZM8.95189 19.6348H9.95189V17.2206L8.24479 18.9277L8.95189 19.6348ZM9.40949 20.5064L10.4007 20.6388L10.5406 19.5911L9.48678 19.5094L9.40949 20.5064ZM8.59037 26.6394V27.6394H9.46569L9.58157 26.7718L8.59037 26.6394ZM5.20196 26.6394H4.20196V27.6394H5.20196V26.6394ZM4.24616 22.6379L3.50737 23.3118L3.50779 23.3123L4.24616 22.6379ZM3.58749 21.9158L4.32629 21.2419L4.32589 21.2415L3.58749 21.9158ZM2.85653 22.5834L3.59532 21.9095L3.59492 21.909L2.85653 22.5834ZM3.51519 23.3055L2.7764 23.9794L2.77686 23.9799L3.51519 23.3055ZM4.21248 26.6394V27.6394H5.21248V26.6394H4.21248ZM0.989485 26.6394H-0.0105151V27.6394H0.989485V26.6394ZM9.79289 18.7928L10.3604 19.3603L11.7746 17.9461L11.2071 17.3786L9.79289 18.7928ZM10.0744 18.5364C10.081 18.4801 10.0914 18.4368 10.0971 18.4148C10.0999 18.404 10.1022 18.396 10.1026 18.3945C10.1028 18.3939 10.103 18.3932 10.1025 18.3949C10.1022 18.396 10.1013 18.3989 10.1003 18.4024C10.0937 18.4255 10.0576 18.5457 10.0576 18.7017H12.0576C12.0576 18.7724 12.0497 18.8319 12.0413 18.8758C12.0335 18.9168 12.0246 18.9474 12.0234 18.9518C12.0229 18.9533 12.0227 18.9543 12.0229 18.9535C12.023 18.9532 12.0237 18.9506 12.0245 18.948C12.026 18.9426 12.0294 18.9308 12.0333 18.916C12.041 18.8861 12.0531 18.8347 12.0607 18.7701L10.0744 18.5364ZM10.0576 18.7017V19.5229H12.0576V18.7017H10.0576ZM11.0576 18.5229H9.94137V20.5229H11.0576V18.5229ZM10.9414 19.5229V18.7017H8.94137V19.5229H10.9414ZM10.9414 18.7017C10.9414 18.6189 10.9316 18.5498 10.9221 18.5006C10.9131 18.4539 10.9027 18.417 10.8998 18.4067C10.8989 18.4037 10.8982 18.401 10.8979 18.4001C10.8975 18.3987 10.8977 18.3993 10.8979 18.4C10.8984 18.4016 10.9005 18.4092 10.9031 18.4195C10.9083 18.4399 10.9182 18.4818 10.9246 18.5364L8.93832 18.7701C8.94573 18.8331 8.95737 18.8831 8.9646 18.9116C8.96823 18.9259 8.97147 18.9375 8.97304 18.943C8.97382 18.9458 8.97455 18.9484 8.97471 18.9489C8.97503 18.9501 8.97482 18.9493 8.97452 18.9482C8.97392 18.9461 8.97162 18.9379 8.96885 18.9269C8.96599 18.9155 8.96205 18.8988 8.9581 18.8783C8.95017 18.8371 8.94137 18.7761 8.94137 18.7017H10.9414ZM10.638 19.3609L11.2065 18.7934L9.79351 17.378L9.22498 17.9455L10.638 19.3609ZM10.4069 21.5133H10.5931V19.5133H10.4069V21.5133ZM9.60188 20.6455L10.419 26.7716L12.4015 26.5072L11.5843 20.3811L9.60188 20.6455ZM11.4102 25.6394H9.59075V27.6394H11.4102V25.6394ZM10.582 26.7715L11.3981 20.6454L9.41565 20.3813L8.5995 26.5073L10.582 26.7715ZM19.0105 22.3338V26.6394H21.0105V22.3338H19.0105ZM20.0105 25.6394H16.7885V27.6394H20.0105V25.6394ZM17.7885 26.6394V25.1022H15.7885V26.6394H17.7885ZM17.7885 25.1022C17.7885 24.6854 17.9427 24.288 18.2241 23.9799L16.7475 22.631C16.1296 23.3074 15.7885 24.1858 15.7885 25.1022H17.7885ZM18.2246 23.9794L18.8833 23.2573L17.4057 21.9095L16.747 22.6315L18.2246 23.9794ZM18.8829 23.2578C19.0153 23.1128 19.1178 22.9432 19.1846 22.7586L17.3041 22.0777C17.3267 22.0153 17.3613 21.958 17.4061 21.909L18.8829 23.2578ZM19.1846 22.7586C19.2515 22.574 19.2813 22.378 19.2724 22.1819L17.2745 22.2725C17.2715 22.2062 17.2815 22.14 17.3041 22.0777L19.1846 22.7586ZM19.2724 22.1819C19.2635 21.9858 19.2161 21.7934 19.1328 21.6156L17.3216 22.4638C17.2935 22.4037 17.2775 22.3387 17.2745 22.2725L19.2724 22.1819ZM19.1328 21.6156C19.0496 21.4378 18.9321 21.2781 18.7871 21.1457L17.4384 22.6225C17.3894 22.5778 17.3497 22.5239 17.3216 22.4638L19.1328 21.6156ZM18.7871 21.1457C18.6422 21.0133 18.4725 20.9108 18.288 20.844L17.607 22.7245C17.5447 22.7019 17.4874 22.6673 17.4384 22.6225L18.7871 21.1457ZM18.288 20.844C18.1034 20.7771 17.9074 20.7473 17.7113 20.7562L17.8019 22.7541C17.7356 22.7571 17.6694 22.7471 17.607 22.7245L18.288 20.844ZM17.7113 20.7562C17.5152 20.7651 17.3227 20.8125 17.1449 20.8958L17.9932 22.707C17.9331 22.7351 17.8681 22.7511 17.8019 22.7541L17.7113 20.7562ZM17.1449 20.8958C16.9671 20.979 16.8075 21.0965 16.6751 21.2415L18.1519 22.5902C18.1072 22.6392 18.0532 22.6788 17.9932 22.707L17.1449 20.8958ZM16.6747 21.2419L16.016 21.964L17.4936 23.3118L18.1523 22.5898L16.6747 21.2419ZM16.0171 21.9628C15.2324 22.8203 14.7977 23.9409 14.799 25.1033L16.799 25.101C16.7983 24.4392 17.0457 23.8012 17.4925 23.313L16.0171 21.9628ZM14.799 25.1022V26.6394H16.799V25.1022H14.799ZM15.799 25.6394H12.4106V27.6394H15.799V25.6394ZM13.4018 26.5072L12.5837 20.3742L10.6013 20.6386L11.4194 26.7716L13.4018 26.5072ZM11.661 21.504C12.0365 21.4782 12.3883 21.3114 12.6459 21.0371L11.188 19.668C11.2759 19.5744 11.3959 19.5175 11.524 19.5087L11.661 21.504ZM12.6459 21.0371C12.9036 20.7627 13.0479 20.4011 13.0501 20.0248L11.0501 20.0134C11.0508 19.885 11.1001 19.7616 11.188 19.668L12.6459 21.0371ZM13.0501 20.0191V19.6348H11.0501V20.0191H13.0501ZM11.343 20.3419L12.0769 21.0758L13.4911 19.6616L12.7572 18.9277L11.343 20.3419ZM12.0778 21.0767C12.2169 21.2155 12.382 21.3255 12.5637 21.4004L13.3262 19.5515C13.3875 19.5767 13.4433 19.6139 13.4902 19.6607L12.0778 21.0767ZM12.5637 21.4004C12.7453 21.4753 12.9399 21.5137 13.1364 21.5133L13.1329 19.5133C13.1992 19.5132 13.2649 19.5262 13.3262 19.5515L12.5637 21.4004ZM13.1704 21.5127L13.1981 21.5117L13.1267 19.513L13.099 19.514L13.1704 21.5127ZM13.2156 21.5109C13.4264 21.4997 13.6323 21.4439 13.82 21.3472L12.9041 19.5693C12.9677 19.5365 13.0376 19.5176 13.1091 19.5137L13.2156 21.5109ZM13.82 21.3472C14.0076 21.2506 14.1726 21.1153 14.3041 20.9502L12.7398 19.704C12.7844 19.648 12.8404 19.6021 12.9041 19.5693L13.82 21.3472ZM14.3027 20.9519L16.1391 18.657L14.5775 17.4074L12.7411 19.7023L14.3027 20.9519ZM14.8437 18.8897L18.2044 20.9063L19.2335 19.1913L15.8728 17.1747L14.8437 18.8897ZM18.2001 20.9037C18.4467 21.0533 18.6506 21.2637 18.7925 21.5147L20.5336 20.5306C20.2232 19.9814 19.777 19.5212 19.2378 19.1939L18.2001 20.9037ZM18.7925 21.5147C18.9344 21.7658 19.0095 22.049 19.0105 22.3374L21.0105 22.3302C21.0082 21.6994 20.844 21.0798 20.5336 20.5306L18.7925 21.5147ZM13.8088 16.7805L12.3102 18.6535L13.8719 19.9029L15.3705 18.03L13.8088 16.7805ZM13.7982 18.5711L12.052 16.8249L10.6378 18.2391L12.384 19.9853L13.7982 18.5711ZM11.7747 18.4349L14.126 17.3157L13.2665 15.5098L10.9151 16.6291L11.7747 18.4349ZM12.953 17.0818L13.8464 18.0743L15.3329 16.7362L14.4395 15.7437L12.953 17.0818ZM6.87297 17.3157L9.22435 18.4349L10.0839 16.6291L7.73254 15.5098L6.87297 17.3157ZM8.94703 16.8249L7.20083 18.5711L8.61504 19.9853L10.3612 18.2391L8.94703 16.8249ZM8.68876 18.6535L7.19018 16.7805L5.62852 18.03L7.12711 19.9029L8.68876 18.6535ZM7.15257 18.0743L8.04598 17.0818L6.55954 15.7437L5.66613 16.7362L7.15257 18.0743ZM1.98948 22.3338C1.98948 21.7549 2.30054 21.2047 2.79785 20.9061L1.76823 19.1915C0.668902 19.8516 -0.0105151 21.0526 -0.0105151 22.3338H1.98948ZM2.79758 20.9063L6.15825 18.8897L5.12918 17.1747L1.76851 19.1913L2.79758 20.9063ZM4.86291 18.657L6.69925 20.9519L8.26085 19.7023L6.42452 17.4074L4.86291 18.657ZM6.70013 20.953C6.83144 21.1166 6.99567 21.2508 7.18218 21.3469L8.09809 19.569C8.16073 19.6012 8.21588 19.6463 8.25997 19.7012L6.70013 20.953ZM7.18218 21.3469C7.3687 21.443 7.57332 21.4988 7.78278 21.5107L7.89641 19.5139C7.96674 19.5179 8.03545 19.5367 8.09809 19.569L7.18218 21.3469ZM7.80389 21.5117L7.83163 21.5127L7.90303 19.514L7.87529 19.513L7.80389 21.5117ZM7.86733 21.5133C8.26362 21.5133 8.6425 21.3554 8.92127 21.0796L7.51464 19.6578C7.60719 19.5663 7.73252 19.5133 7.86733 19.5133V21.5133ZM8.92506 21.0758L9.659 20.3419L8.24479 18.9277L7.51085 19.6616L8.92506 21.0758ZM7.95189 19.6348V20.0191H9.95189V19.6348H7.95189ZM7.95189 20.0191C7.95189 20.8255 8.57978 21.4451 9.3322 21.5034L9.48678 19.5094C9.72812 19.5281 9.95189 19.7337 9.95189 20.0191H7.95189ZM8.41829 20.374L7.59917 26.507L9.58157 26.7718L10.4007 20.6388L8.41829 20.374ZM8.59037 25.6394H5.20196V27.6394H8.59037V25.6394ZM6.20196 26.6394V25.1022H4.20196V26.6394H6.20196ZM6.20196 25.1022C6.20196 23.9385 5.76895 22.8223 4.98453 21.9635L3.50779 23.3123C3.95551 23.8025 4.20196 24.4375 4.20196 25.1022H6.20196ZM4.98495 21.964L4.32629 21.2419L2.8487 22.5898L3.50737 23.3118L4.98495 21.964ZM4.32589 21.2415C4.19351 21.0965 4.03386 20.979 3.85606 20.8958L3.00781 22.707C2.94774 22.6788 2.89381 22.6392 2.8491 22.5902L4.32589 21.2415ZM3.85606 20.8958C3.67827 20.8125 3.48582 20.7651 3.2897 20.7562L3.19914 22.7541C3.13289 22.7511 3.06788 22.7351 3.00781 22.707L3.85606 20.8958ZM3.2897 20.7562C3.09359 20.7473 2.89764 20.7771 2.71304 20.844L3.39395 22.7245C3.33158 22.7471 3.26538 22.7571 3.19914 22.7541L3.2897 20.7562ZM2.71304 20.844C2.52844 20.9108 2.35882 21.0133 2.21386 21.1457L3.56258 22.6225C3.51361 22.6673 3.45631 22.7019 3.39395 22.7245L2.71304 20.844ZM2.21386 21.1457C2.06888 21.2781 1.95142 21.4378 1.86816 21.6156L3.67937 22.4638C3.65124 22.5239 3.61156 22.5778 3.56258 22.6225L2.21386 21.1457ZM1.86816 21.6156C1.7849 21.7934 1.73746 21.9858 1.72857 22.1819L3.72652 22.2725C3.72352 22.3387 3.7075 22.4038 3.67937 22.4638L1.86816 21.6156ZM1.72857 22.1819C1.71968 22.3781 1.74951 22.574 1.81635 22.7586L3.69687 22.0777C3.71945 22.14 3.72953 22.2062 3.72652 22.2725L1.72857 22.1819ZM1.81635 22.7586C1.88319 22.9432 1.98572 23.1128 2.11813 23.2578L3.59492 21.909C3.63966 21.958 3.6743 22.0153 3.69687 22.0777L1.81635 22.7586ZM2.11773 23.2573L2.7764 23.9794L4.25398 22.6315L3.59532 21.9095L2.11773 23.2573ZM2.77686 23.9799C3.05818 24.2879 3.21248 24.6861 3.21248 25.1022H5.21248C5.21248 24.187 4.87155 23.3076 4.25351 22.631L2.77686 23.9799ZM3.21248 25.1022V26.6394H5.21248V25.1022H3.21248ZM4.21248 25.6394H0.989485V27.6394H4.21248V25.6394ZM1.98948 26.6394V22.3338H-0.0105151V26.6394H1.98948Z" fill="white" mask="url(#path-1-inside-1_993_577)"/>
<mask id="path-3-outside-2_993_577" maskUnits="userSpaceOnUse" x="2" y="0" width="17" height="17" fill="black">
<rect fill="white" x="2" width="17" height="17"/>
<path d="M7.97813 11.6352C8.26889 11.8366 8.50473 12.1006 8.66613 12.4053C8.82753 12.71 8.90984 13.0466 8.90625 13.3874V15.0916C8.90639 15.119 8.91212 15.1461 8.92312 15.1714C8.92277 15.1776 8.92277 15.1838 8.92312 15.19L9.48562 16.2535C9.50664 16.3034 9.54315 16.3461 9.59034 16.376C9.63753 16.4059 9.69319 16.4216 9.75 16.421H11.4375C11.4894 16.4209 11.5403 16.4072 11.5845 16.3813C11.6287 16.3555 11.6644 16.3187 11.6878 16.2748L12.2503 15.2113C12.2507 15.2051 12.2507 15.1989 12.2503 15.1927C12.2694 15.162 12.28 15.1272 12.2812 15.0916V13.4964C12.265 13.1268 12.3468 12.7593 12.5193 12.4272C12.6917 12.0952 12.9492 11.8092 13.2684 11.5953C14.0327 11.0615 14.5986 10.3126 14.885 9.456C15.1714 8.59941 15.1636 7.67911 14.8627 6.82697C14.5619 5.97484 13.9834 5.23462 13.2101 4.7124C12.4369 4.19018 11.5086 3.91278 10.5584 3.91994C9.60811 3.92711 8.68465 4.21847 7.92032 4.75228C7.156 5.28609 6.59005 6.03493 6.30358 6.8915C6.01712 7.74806 6.02485 8.66837 6.32566 9.52052C6.62647 10.3727 7.20493 11.1129 7.97813 11.6352ZM11.7188 13.7622V14.8258H9.46875V13.7622H11.7188ZM10.3322 13.2305C10.3855 12.1457 10.1516 11.0655 9.65156 10.0878C10.2141 10.1436 10.3266 9.77404 10.5909 9.77404C10.8553 9.77404 10.965 10.1436 11.5359 10.0878C11.0359 11.0655 10.802 12.1457 10.8553 13.2305H10.3322ZM11.2631 15.8893H9.92438L9.64313 15.3575H11.5444L11.2631 15.8893ZM10.4053 4.45644C10.938 4.43231 11.4704 4.51074 11.9701 4.68697C12.4697 4.8632 12.9264 5.13356 13.3122 5.48164C13.698 5.82973 14.005 6.24828 14.2146 6.71191C14.4241 7.17554 14.5319 7.67458 14.5312 8.17876C14.5342 8.76087 14.3909 9.33533 14.1132 9.85488C13.8355 10.3744 13.4312 10.8242 12.9338 11.1673C12.5825 11.4049 12.2914 11.7132 12.0813 12.07C11.8712 12.4267 11.7474 12.8231 11.7188 13.2305H11.4206C11.3953 12.6057 11.4347 10.8828 12.4978 9.67833C12.532 9.63947 12.5538 9.5922 12.5607 9.54204C12.5675 9.49189 12.559 9.44094 12.5363 9.39516C12.5136 9.34939 12.4775 9.3107 12.4323 9.28362C12.3871 9.25654 12.3347 9.2422 12.2812 9.24228C11.7722 9.24228 11.6934 9.56134 11.4375 9.56134C11.1816 9.56134 11.1 9.24228 10.5938 9.24228C10.0875 9.24228 10.0059 9.56134 9.75 9.56134C9.49406 9.56134 9.40969 9.24228 8.90625 9.24228C8.85276 9.2422 8.80036 9.25654 8.75518 9.28362C8.71001 9.3107 8.67394 9.34939 8.65121 9.39516C8.62847 9.44094 8.62002 9.49189 8.62684 9.54204C8.63365 9.5922 8.65545 9.63947 8.68969 9.67833C9.75281 10.8828 9.79219 12.603 9.76687 13.2305H9.46875C9.44897 12.8325 9.33482 12.4438 9.13474 12.0931C8.93465 11.7424 8.65376 11.4387 8.31281 11.2045C7.79602 10.8573 7.37555 10.3973 7.08714 9.86359C6.79873 9.32986 6.65091 8.73819 6.65625 8.13888C6.67713 7.19196 7.07451 6.2872 7.76927 5.60479C8.46402 4.92238 9.40518 4.51238 10.4053 4.45644ZM10.5938 3.12704C10.6683 3.12704 10.7399 3.09903 10.7926 3.04917C10.8454 2.9993 10.875 2.93168 10.875 2.86116V1.26588C10.875 1.19536 10.8454 1.12774 10.7926 1.07787C10.7399 1.02801 10.6683 1 10.5938 1C10.5192 1 10.4476 1.02801 10.3949 1.07787C10.3421 1.12774 10.3125 1.19536 10.3125 1.26588V2.86116C10.3125 2.93168 10.3421 2.9993 10.3949 3.04917C10.4476 3.09903 10.5192 3.12704 10.5938 3.12704ZM7.53656 3.70666C7.56134 3.74723 7.59702 3.7809 7.63999 3.80424C7.68296 3.82759 7.73169 3.83979 7.78125 3.8396C7.83071 3.83979 7.87936 3.82764 7.92227 3.80438C7.96518 3.78112 8.00084 3.74757 8.02566 3.70712C8.05048 3.66667 8.06357 3.62075 8.06362 3.57398C8.06367 3.52722 8.05067 3.48128 8.02594 3.44078L7.18219 2.0582C7.16358 2.02796 7.13884 2.00148 7.10939 1.9803C7.07993 1.95911 7.04635 1.94362 7.01055 1.93473C6.97475 1.92584 6.93745 1.92371 6.90079 1.92848C6.86412 1.93324 6.82881 1.9448 6.79688 1.96249C6.76427 1.97985 6.73566 2.0032 6.71272 2.03115C6.68978 2.0591 6.67298 2.0911 6.66328 2.12527C6.65359 2.15944 6.65121 2.1951 6.65628 2.23015C6.66135 2.2652 6.67377 2.29894 6.69281 2.3294L7.53656 3.70666ZM4.125 4.95364C5.65219 5.78584 5.5875 5.78584 5.7225 5.78584C5.78477 5.78625 5.84543 5.76711 5.89496 5.73143C5.94449 5.69574 5.98009 5.64552 5.99617 5.58865C6.01226 5.53177 6.00792 5.47146 5.98384 5.41717C5.95976 5.36287 5.91731 5.31767 5.86313 5.28865L4.40062 4.49101C4.33573 4.45575 4.25868 4.4463 4.18642 4.46475C4.11416 4.4832 4.05261 4.52803 4.01531 4.58938C3.97802 4.65073 3.96803 4.72357 3.98754 4.79188C4.00706 4.86019 4.05448 4.91838 4.11937 4.95364H4.125ZM3.28125 8.44464H4.96875C5.04334 8.44464 5.11488 8.41663 5.16762 8.36677C5.22037 8.31691 5.25 8.24928 5.25 8.17876C5.25 8.10825 5.22037 8.04062 5.16762 7.99076C5.11488 7.9409 5.04334 7.91288 4.96875 7.91288H3.28125C3.20666 7.91288 3.13512 7.9409 3.08238 7.99076C3.02963 8.04062 3 8.10825 3 8.17876C3 8.24928 3.02963 8.31691 3.08238 8.36677C3.13512 8.41663 3.20666 8.44464 3.28125 8.44464ZM4.40625 11.8665L5.86875 11.0689C5.90088 11.0514 5.92906 11.0282 5.95168 11.0004C5.9743 10.9726 5.99092 10.941 6.00058 10.9071C6.01025 10.8733 6.01277 10.838 6.008 10.8033C6.00324 10.7685 5.99128 10.735 5.97281 10.7046C5.95435 10.6742 5.92973 10.6476 5.90037 10.6262C5.87101 10.6048 5.83749 10.5891 5.80171 10.58C5.76593 10.5709 5.7286 10.5685 5.69184 10.573C5.65509 10.5775 5.61963 10.5888 5.5875 10.6062L4.125 11.4039C4.09287 11.4213 4.06469 11.4446 4.04207 11.4724C4.01945 11.5001 4.00283 11.5318 3.99317 11.5656C3.9835 11.5995 3.98098 11.6348 3.98575 11.6695C3.99051 11.7042 4.00247 11.7378 4.02094 11.7681C4.0394 11.7985 4.06402 11.8252 4.09338 11.8465C4.12274 11.8679 4.15626 11.8836 4.19204 11.8928C4.22782 11.9019 4.26515 11.9043 4.30191 11.8998C4.33866 11.8953 4.37412 11.884 4.40625 11.8665ZM15.3244 11.0689L16.7869 11.8665C16.8518 11.9018 16.9288 11.9112 17.0011 11.8928C17.0733 11.8743 17.1349 11.8295 17.1722 11.7681C17.2095 11.7068 17.2195 11.634 17.2 11.5656C17.1804 11.4973 17.133 11.4391 17.0681 11.4039L15.6056 10.6062C15.5735 10.5888 15.538 10.5775 15.5013 10.573C15.4645 10.5685 15.4272 10.5709 15.3914 10.58C15.3556 10.5891 15.3221 10.6048 15.2928 10.6262C15.2634 10.6476 15.2388 10.6742 15.2203 10.7046C15.2018 10.735 15.1899 10.7685 15.1851 10.8033C15.1804 10.838 15.1829 10.8733 15.1925 10.9071C15.2022 10.941 15.2188 10.9726 15.2414 11.0004C15.2641 11.0282 15.2922 11.0514 15.3244 11.0689ZM15.9375 8.17876C15.9375 8.24928 15.9671 8.31691 16.0199 8.36677C16.0726 8.41663 16.1442 8.44464 16.2188 8.44464H17.9062C17.9808 8.44464 18.0524 8.41663 18.1051 8.36677C18.1579 8.31691 18.1875 8.24928 18.1875 8.17876C18.1875 8.10825 18.1579 8.04062 18.1051 7.99076C18.0524 7.9409 17.9808 7.91288 17.9062 7.91288H16.2188C16.1442 7.91288 16.0726 7.9409 16.0199 7.99076C15.9671 8.04062 15.9375 8.10825 15.9375 8.17876ZM15.6056 5.75128L17.0681 4.95364C17.133 4.91838 17.1804 4.86019 17.2 4.79188C17.2195 4.72357 17.2095 4.65073 17.1722 4.58938C17.1349 4.52803 17.0733 4.4832 17.0011 4.46475C16.9288 4.4463 16.8518 4.45575 16.7869 4.49101L15.3244 5.28865C15.2595 5.3239 15.2121 5.38209 15.1925 5.4504C15.173 5.51871 15.183 5.59155 15.2203 5.6529C15.2576 5.71425 15.3192 5.75908 15.3914 5.77753C15.4637 5.79598 15.5407 5.78654 15.6056 5.75128ZM13.2656 3.80504C13.2977 3.82262 13.3332 3.83402 13.37 3.83859C13.4067 3.84316 13.4441 3.8408 13.4799 3.83166C13.5158 3.82251 13.5493 3.80676 13.5786 3.78531C13.608 3.76386 13.6326 3.73713 13.6509 3.70666L14.4947 2.32408C14.5314 2.26303 14.541 2.19075 14.5215 2.12301C14.502 2.05526 14.455 1.99756 14.3906 1.96249C14.3584 1.94501 14.3227 1.93376 14.2858 1.92939C14.2489 1.92501 14.2115 1.9276 14.1757 1.93699C14.1398 1.94639 14.1063 1.96241 14.0771 1.98413C14.0478 2.00585 14.0235 2.03283 14.0053 2.06352L13.1616 3.4461C13.1258 3.5069 13.1166 3.57854 13.1361 3.64565C13.1555 3.71275 13.202 3.76998 13.2656 3.80504Z"/>
</mask>
<path d="M7.97813 11.6352C8.26889 11.8366 8.50473 12.1006 8.66613 12.4053C8.82753 12.71 8.90984 13.0466 8.90625 13.3874V15.0916C8.90639 15.119 8.91212 15.1461 8.92312 15.1714C8.92277 15.1776 8.92277 15.1838 8.92312 15.19L9.48562 16.2535C9.50664 16.3034 9.54315 16.3461 9.59034 16.376C9.63753 16.4059 9.69319 16.4216 9.75 16.421H11.4375C11.4894 16.4209 11.5403 16.4072 11.5845 16.3813C11.6287 16.3555 11.6644 16.3187 11.6878 16.2748L12.2503 15.2113C12.2507 15.2051 12.2507 15.1989 12.2503 15.1927C12.2694 15.162 12.28 15.1272 12.2812 15.0916V13.4964C12.265 13.1268 12.3468 12.7593 12.5193 12.4272C12.6917 12.0952 12.9492 11.8092 13.2684 11.5953C14.0327 11.0615 14.5986 10.3126 14.885 9.456C15.1714 8.59941 15.1636 7.67911 14.8627 6.82697C14.5619 5.97484 13.9834 5.23462 13.2101 4.7124C12.4369 4.19018 11.5086 3.91278 10.5584 3.91994C9.60811 3.92711 8.68465 4.21847 7.92032 4.75228C7.156 5.28609 6.59005 6.03493 6.30358 6.8915C6.01712 7.74806 6.02485 8.66837 6.32566 9.52052C6.62647 10.3727 7.20493 11.1129 7.97813 11.6352ZM11.7188 13.7622V14.8258H9.46875V13.7622H11.7188ZM10.3322 13.2305C10.3855 12.1457 10.1516 11.0655 9.65156 10.0878C10.2141 10.1436 10.3266 9.77404 10.5909 9.77404C10.8553 9.77404 10.965 10.1436 11.5359 10.0878C11.0359 11.0655 10.802 12.1457 10.8553 13.2305H10.3322ZM11.2631 15.8893H9.92438L9.64313 15.3575H11.5444L11.2631 15.8893ZM10.4053 4.45644C10.938 4.43231 11.4704 4.51074 11.9701 4.68697C12.4697 4.8632 12.9264 5.13356 13.3122 5.48164C13.698 5.82973 14.005 6.24828 14.2146 6.71191C14.4241 7.17554 14.5319 7.67458 14.5312 8.17876C14.5342 8.76087 14.3909 9.33533 14.1132 9.85488C13.8355 10.3744 13.4312 10.8242 12.9338 11.1673C12.5825 11.4049 12.2914 11.7132 12.0813 12.07C11.8712 12.4267 11.7474 12.8231 11.7188 13.2305H11.4206C11.3953 12.6057 11.4347 10.8828 12.4978 9.67833C12.532 9.63947 12.5538 9.5922 12.5607 9.54204C12.5675 9.49189 12.559 9.44094 12.5363 9.39516C12.5136 9.34939 12.4775 9.3107 12.4323 9.28362C12.3871 9.25654 12.3347 9.2422 12.2812 9.24228C11.7722 9.24228 11.6934 9.56134 11.4375 9.56134C11.1816 9.56134 11.1 9.24228 10.5938 9.24228C10.0875 9.24228 10.0059 9.56134 9.75 9.56134C9.49406 9.56134 9.40969 9.24228 8.90625 9.24228C8.85276 9.2422 8.80036 9.25654 8.75518 9.28362C8.71001 9.3107 8.67394 9.34939 8.65121 9.39516C8.62847 9.44094 8.62002 9.49189 8.62684 9.54204C8.63365 9.5922 8.65545 9.63947 8.68969 9.67833C9.75281 10.8828 9.79219 12.603 9.76687 13.2305H9.46875C9.44897 12.8325 9.33482 12.4438 9.13474 12.0931C8.93465 11.7424 8.65376 11.4387 8.31281 11.2045C7.79602 10.8573 7.37555 10.3973 7.08714 9.86359C6.79873 9.32986 6.65091 8.73819 6.65625 8.13888C6.67713 7.19196 7.07451 6.2872 7.76927 5.60479C8.46402 4.92238 9.40518 4.51238 10.4053 4.45644ZM10.5938 3.12704C10.6683 3.12704 10.7399 3.09903 10.7926 3.04917C10.8454 2.9993 10.875 2.93168 10.875 2.86116V1.26588C10.875 1.19536 10.8454 1.12774 10.7926 1.07787C10.7399 1.02801 10.6683 1 10.5938 1C10.5192 1 10.4476 1.02801 10.3949 1.07787C10.3421 1.12774 10.3125 1.19536 10.3125 1.26588V2.86116C10.3125 2.93168 10.3421 2.9993 10.3949 3.04917C10.4476 3.09903 10.5192 3.12704 10.5938 3.12704ZM7.53656 3.70666C7.56134 3.74723 7.59702 3.7809 7.63999 3.80424C7.68296 3.82759 7.73169 3.83979 7.78125 3.8396C7.83071 3.83979 7.87936 3.82764 7.92227 3.80438C7.96518 3.78112 8.00084 3.74757 8.02566 3.70712C8.05048 3.66667 8.06357 3.62075 8.06362 3.57398C8.06367 3.52722 8.05067 3.48128 8.02594 3.44078L7.18219 2.0582C7.16358 2.02796 7.13884 2.00148 7.10939 1.9803C7.07993 1.95911 7.04635 1.94362 7.01055 1.93473C6.97475 1.92584 6.93745 1.92371 6.90079 1.92848C6.86412 1.93324 6.82881 1.9448 6.79688 1.96249C6.76427 1.97985 6.73566 2.0032 6.71272 2.03115C6.68978 2.0591 6.67298 2.0911 6.66328 2.12527C6.65359 2.15944 6.65121 2.1951 6.65628 2.23015C6.66135 2.2652 6.67377 2.29894 6.69281 2.3294L7.53656 3.70666ZM4.125 4.95364C5.65219 5.78584 5.5875 5.78584 5.7225 5.78584C5.78477 5.78625 5.84543 5.76711 5.89496 5.73143C5.94449 5.69574 5.98009 5.64552 5.99617 5.58865C6.01226 5.53177 6.00792 5.47146 5.98384 5.41717C5.95976 5.36287 5.91731 5.31767 5.86313 5.28865L4.40062 4.49101C4.33573 4.45575 4.25868 4.4463 4.18642 4.46475C4.11416 4.4832 4.05261 4.52803 4.01531 4.58938C3.97802 4.65073 3.96803 4.72357 3.98754 4.79188C4.00706 4.86019 4.05448 4.91838 4.11937 4.95364H4.125ZM3.28125 8.44464H4.96875C5.04334 8.44464 5.11488 8.41663 5.16762 8.36677C5.22037 8.31691 5.25 8.24928 5.25 8.17876C5.25 8.10825 5.22037 8.04062 5.16762 7.99076C5.11488 7.9409 5.04334 7.91288 4.96875 7.91288H3.28125C3.20666 7.91288 3.13512 7.9409 3.08238 7.99076C3.02963 8.04062 3 8.10825 3 8.17876C3 8.24928 3.02963 8.31691 3.08238 8.36677C3.13512 8.41663 3.20666 8.44464 3.28125 8.44464ZM4.40625 11.8665L5.86875 11.0689C5.90088 11.0514 5.92906 11.0282 5.95168 11.0004C5.9743 10.9726 5.99092 10.941 6.00058 10.9071C6.01025 10.8733 6.01277 10.838 6.008 10.8033C6.00324 10.7685 5.99128 10.735 5.97281 10.7046C5.95435 10.6742 5.92973 10.6476 5.90037 10.6262C5.87101 10.6048 5.83749 10.5891 5.80171 10.58C5.76593 10.5709 5.7286 10.5685 5.69184 10.573C5.65509 10.5775 5.61963 10.5888 5.5875 10.6062L4.125 11.4039C4.09287 11.4213 4.06469 11.4446 4.04207 11.4724C4.01945 11.5001 4.00283 11.5318 3.99317 11.5656C3.9835 11.5995 3.98098 11.6348 3.98575 11.6695C3.99051 11.7042 4.00247 11.7378 4.02094 11.7681C4.0394 11.7985 4.06402 11.8252 4.09338 11.8465C4.12274 11.8679 4.15626 11.8836 4.19204 11.8928C4.22782 11.9019 4.26515 11.9043 4.30191 11.8998C4.33866 11.8953 4.37412 11.884 4.40625 11.8665ZM15.3244 11.0689L16.7869 11.8665C16.8518 11.9018 16.9288 11.9112 17.0011 11.8928C17.0733 11.8743 17.1349 11.8295 17.1722 11.7681C17.2095 11.7068 17.2195 11.634 17.2 11.5656C17.1804 11.4973 17.133 11.4391 17.0681 11.4039L15.6056 10.6062C15.5735 10.5888 15.538 10.5775 15.5013 10.573C15.4645 10.5685 15.4272 10.5709 15.3914 10.58C15.3556 10.5891 15.3221 10.6048 15.2928 10.6262C15.2634 10.6476 15.2388 10.6742 15.2203 10.7046C15.2018 10.735 15.1899 10.7685 15.1851 10.8033C15.1804 10.838 15.1829 10.8733 15.1925 10.9071C15.2022 10.941 15.2188 10.9726 15.2414 11.0004C15.2641 11.0282 15.2922 11.0514 15.3244 11.0689ZM15.9375 8.17876C15.9375 8.24928 15.9671 8.31691 16.0199 8.36677C16.0726 8.41663 16.1442 8.44464 16.2188 8.44464H17.9062C17.9808 8.44464 18.0524 8.41663 18.1051 8.36677C18.1579 8.31691 18.1875 8.24928 18.1875 8.17876C18.1875 8.10825 18.1579 8.04062 18.1051 7.99076C18.0524 7.9409 17.9808 7.91288 17.9062 7.91288H16.2188C16.1442 7.91288 16.0726 7.9409 16.0199 7.99076C15.9671 8.04062 15.9375 8.10825 15.9375 8.17876ZM15.6056 5.75128L17.0681 4.95364C17.133 4.91838 17.1804 4.86019 17.2 4.79188C17.2195 4.72357 17.2095 4.65073 17.1722 4.58938C17.1349 4.52803 17.0733 4.4832 17.0011 4.46475C16.9288 4.4463 16.8518 4.45575 16.7869 4.49101L15.3244 5.28865C15.2595 5.3239 15.2121 5.38209 15.1925 5.4504C15.173 5.51871 15.183 5.59155 15.2203 5.6529C15.2576 5.71425 15.3192 5.75908 15.3914 5.77753C15.4637 5.79598 15.5407 5.78654 15.6056 5.75128ZM13.2656 3.80504C13.2977 3.82262 13.3332 3.83402 13.37 3.83859C13.4067 3.84316 13.4441 3.8408 13.4799 3.83166C13.5158 3.82251 13.5493 3.80676 13.5786 3.78531C13.608 3.76386 13.6326 3.73713 13.6509 3.70666L14.4947 2.32408C14.5314 2.26303 14.541 2.19075 14.5215 2.12301C14.502 2.05526 14.455 1.99756 14.3906 1.96249C14.3584 1.94501 14.3227 1.93376 14.2858 1.92939C14.2489 1.92501 14.2115 1.9276 14.1757 1.93699C14.1398 1.94639 14.1063 1.96241 14.0771 1.98413C14.0478 2.00585 14.0235 2.03283 14.0053 2.06352L13.1616 3.4461C13.1258 3.5069 13.1166 3.57854 13.1361 3.64565C13.1555 3.71275 13.202 3.76998 13.2656 3.80504Z" fill="white"/>
<path d="M7.97813 11.6352C8.26889 11.8366 8.50473 12.1006 8.66613 12.4053C8.82753 12.71 8.90984 13.0466 8.90625 13.3874V15.0916C8.90639 15.119 8.91212 15.1461 8.92312 15.1714C8.92277 15.1776 8.92277 15.1838 8.92312 15.19L9.48562 16.2535C9.50664 16.3034 9.54315 16.3461 9.59034 16.376C9.63753 16.4059 9.69319 16.4216 9.75 16.421H11.4375C11.4894 16.4209 11.5403 16.4072 11.5845 16.3813C11.6287 16.3555 11.6644 16.3187 11.6878 16.2748L12.2503 15.2113C12.2507 15.2051 12.2507 15.1989 12.2503 15.1927C12.2694 15.162 12.28 15.1272 12.2812 15.0916V13.4964C12.265 13.1268 12.3468 12.7593 12.5193 12.4272C12.6917 12.0952 12.9492 11.8092 13.2684 11.5953C14.0327 11.0615 14.5986 10.3126 14.885 9.456C15.1714 8.59941 15.1636 7.67911 14.8627 6.82697C14.5619 5.97484 13.9834 5.23462 13.2101 4.7124C12.4369 4.19018 11.5086 3.91278 10.5584 3.91994C9.60811 3.92711 8.68465 4.21847 7.92032 4.75228C7.156 5.28609 6.59005 6.03493 6.30358 6.8915C6.01712 7.74806 6.02485 8.66837 6.32566 9.52052C6.62647 10.3727 7.20493 11.1129 7.97813 11.6352ZM11.7188 13.7622V14.8258H9.46875V13.7622H11.7188ZM10.3322 13.2305C10.3855 12.1457 10.1516 11.0655 9.65156 10.0878C10.2141 10.1436 10.3266 9.77404 10.5909 9.77404C10.8553 9.77404 10.965 10.1436 11.5359 10.0878C11.0359 11.0655 10.802 12.1457 10.8553 13.2305H10.3322ZM11.2631 15.8893H9.92438L9.64313 15.3575H11.5444L11.2631 15.8893ZM10.4053 4.45644C10.938 4.43231 11.4704 4.51074 11.9701 4.68697C12.4697 4.8632 12.9264 5.13356 13.3122 5.48164C13.698 5.82973 14.005 6.24828 14.2146 6.71191C14.4241 7.17554 14.5319 7.67458 14.5312 8.17876C14.5342 8.76087 14.3909 9.33533 14.1132 9.85488C13.8355 10.3744 13.4312 10.8242 12.9338 11.1673C12.5825 11.4049 12.2914 11.7132 12.0813 12.07C11.8712 12.4267 11.7474 12.8231 11.7188 13.2305H11.4206C11.3953 12.6057 11.4347 10.8828 12.4978 9.67833C12.532 9.63947 12.5538 9.5922 12.5607 9.54204C12.5675 9.49189 12.559 9.44094 12.5363 9.39516C12.5136 9.34939 12.4775 9.3107 12.4323 9.28362C12.3871 9.25654 12.3347 9.2422 12.2812 9.24228C11.7722 9.24228 11.6934 9.56134 11.4375 9.56134C11.1816 9.56134 11.1 9.24228 10.5938 9.24228C10.0875 9.24228 10.0059 9.56134 9.75 9.56134C9.49406 9.56134 9.40969 9.24228 8.90625 9.24228C8.85276 9.2422 8.80036 9.25654 8.75518 9.28362C8.71001 9.3107 8.67394 9.34939 8.65121 9.39516C8.62847 9.44094 8.62002 9.49189 8.62684 9.54204C8.63365 9.5922 8.65545 9.63947 8.68969 9.67833C9.75281 10.8828 9.79219 12.603 9.76687 13.2305H9.46875C9.44897 12.8325 9.33482 12.4438 9.13474 12.0931C8.93465 11.7424 8.65376 11.4387 8.31281 11.2045C7.79602 10.8573 7.37555 10.3973 7.08714 9.86359C6.79873 9.32986 6.65091 8.73819 6.65625 8.13888C6.67713 7.19196 7.07451 6.2872 7.76927 5.60479C8.46402 4.92238 9.40518 4.51238 10.4053 4.45644ZM10.5938 3.12704C10.6683 3.12704 10.7399 3.09903 10.7926 3.04917C10.8454 2.9993 10.875 2.93168 10.875 2.86116V1.26588C10.875 1.19536 10.8454 1.12774 10.7926 1.07787C10.7399 1.02801 10.6683 1 10.5938 1C10.5192 1 10.4476 1.02801 10.3949 1.07787C10.3421 1.12774 10.3125 1.19536 10.3125 1.26588V2.86116C10.3125 2.93168 10.3421 2.9993 10.3949 3.04917C10.4476 3.09903 10.5192 3.12704 10.5938 3.12704ZM7.53656 3.70666C7.56134 3.74723 7.59702 3.7809 7.63999 3.80424C7.68296 3.82759 7.73169 3.83979 7.78125 3.8396C7.83071 3.83979 7.87936 3.82764 7.92227 3.80438C7.96518 3.78112 8.00084 3.74757 8.02566 3.70712C8.05048 3.66667 8.06357 3.62075 8.06362 3.57398C8.06367 3.52722 8.05067 3.48128 8.02594 3.44078L7.18219 2.0582C7.16358 2.02796 7.13884 2.00148 7.10939 1.9803C7.07993 1.95911 7.04635 1.94362 7.01055 1.93473C6.97475 1.92584 6.93745 1.92371 6.90079 1.92848C6.86412 1.93324 6.82881 1.9448 6.79688 1.96249C6.76427 1.97985 6.73566 2.0032 6.71272 2.03115C6.68978 2.0591 6.67298 2.0911 6.66328 2.12527C6.65359 2.15944 6.65121 2.1951 6.65628 2.23015C6.66135 2.2652 6.67377 2.29894 6.69281 2.3294L7.53656 3.70666ZM4.125 4.95364C5.65219 5.78584 5.5875 5.78584 5.7225 5.78584C5.78477 5.78625 5.84543 5.76711 5.89496 5.73143C5.94449 5.69574 5.98009 5.64552 5.99617 5.58865C6.01226 5.53177 6.00792 5.47146 5.98384 5.41717C5.95976 5.36287 5.91731 5.31767 5.86313 5.28865L4.40062 4.49101C4.33573 4.45575 4.25868 4.4463 4.18642 4.46475C4.11416 4.4832 4.05261 4.52803 4.01531 4.58938C3.97802 4.65073 3.96803 4.72357 3.98754 4.79188C4.00706 4.86019 4.05448 4.91838 4.11937 4.95364H4.125ZM3.28125 8.44464H4.96875C5.04334 8.44464 5.11488 8.41663 5.16762 8.36677C5.22037 8.31691 5.25 8.24928 5.25 8.17876C5.25 8.10825 5.22037 8.04062 5.16762 7.99076C5.11488 7.9409 5.04334 7.91288 4.96875 7.91288H3.28125C3.20666 7.91288 3.13512 7.9409 3.08238 7.99076C3.02963 8.04062 3 8.10825 3 8.17876C3 8.24928 3.02963 8.31691 3.08238 8.36677C3.13512 8.41663 3.20666 8.44464 3.28125 8.44464ZM4.40625 11.8665L5.86875 11.0689C5.90088 11.0514 5.92906 11.0282 5.95168 11.0004C5.9743 10.9726 5.99092 10.941 6.00058 10.9071C6.01025 10.8733 6.01277 10.838 6.008 10.8033C6.00324 10.7685 5.99128 10.735 5.97281 10.7046C5.95435 10.6742 5.92973 10.6476 5.90037 10.6262C5.87101 10.6048 5.83749 10.5891 5.80171 10.58C5.76593 10.5709 5.7286 10.5685 5.69184 10.573C5.65509 10.5775 5.61963 10.5888 5.5875 10.6062L4.125 11.4039C4.09287 11.4213 4.06469 11.4446 4.04207 11.4724C4.01945 11.5001 4.00283 11.5318 3.99317 11.5656C3.9835 11.5995 3.98098 11.6348 3.98575 11.6695C3.99051 11.7042 4.00247 11.7378 4.02094 11.7681C4.0394 11.7985 4.06402 11.8252 4.09338 11.8465C4.12274 11.8679 4.15626 11.8836 4.19204 11.8928C4.22782 11.9019 4.26515 11.9043 4.30191 11.8998C4.33866 11.8953 4.37412 11.884 4.40625 11.8665ZM15.3244 11.0689L16.7869 11.8665C16.8518 11.9018 16.9288 11.9112 17.0011 11.8928C17.0733 11.8743 17.1349 11.8295 17.1722 11.7681C17.2095 11.7068 17.2195 11.634 17.2 11.5656C17.1804 11.4973 17.133 11.4391 17.0681 11.4039L15.6056 10.6062C15.5735 10.5888 15.538 10.5775 15.5013 10.573C15.4645 10.5685 15.4272 10.5709 15.3914 10.58C15.3556 10.5891 15.3221 10.6048 15.2928 10.6262C15.2634 10.6476 15.2388 10.6742 15.2203 10.7046C15.2018 10.735 15.1899 10.7685 15.1851 10.8033C15.1804 10.838 15.1829 10.8733 15.1925 10.9071C15.2022 10.941 15.2188 10.9726 15.2414 11.0004C15.2641 11.0282 15.2922 11.0514 15.3244 11.0689ZM15.9375 8.17876C15.9375 8.24928 15.9671 8.31691 16.0199 8.36677C16.0726 8.41663 16.1442 8.44464 16.2188 8.44464H17.9062C17.9808 8.44464 18.0524 8.41663 18.1051 8.36677C18.1579 8.31691 18.1875 8.24928 18.1875 8.17876C18.1875 8.10825 18.1579 8.04062 18.1051 7.99076C18.0524 7.9409 17.9808 7.91288 17.9062 7.91288H16.2188C16.1442 7.91288 16.0726 7.9409 16.0199 7.99076C15.9671 8.04062 15.9375 8.10825 15.9375 8.17876ZM15.6056 5.75128L17.0681 4.95364C17.133 4.91838 17.1804 4.86019 17.2 4.79188C17.2195 4.72357 17.2095 4.65073 17.1722 4.58938C17.1349 4.52803 17.0733 4.4832 17.0011 4.46475C16.9288 4.4463 16.8518 4.45575 16.7869 4.49101L15.3244 5.28865C15.2595 5.3239 15.2121 5.38209 15.1925 5.4504C15.173 5.51871 15.183 5.59155 15.2203 5.6529C15.2576 5.71425 15.3192 5.75908 15.3914 5.77753C15.4637 5.79598 15.5407 5.78654 15.6056 5.75128ZM13.2656 3.80504C13.2977 3.82262 13.3332 3.83402 13.37 3.83859C13.4067 3.84316 13.4441 3.8408 13.4799 3.83166C13.5158 3.82251 13.5493 3.80676 13.5786 3.78531C13.608 3.76386 13.6326 3.73713 13.6509 3.70666L14.4947 2.32408C14.5314 2.26303 14.541 2.19075 14.5215 2.12301C14.502 2.05526 14.455 1.99756 14.3906 1.96249C14.3584 1.94501 14.3227 1.93376 14.2858 1.92939C14.2489 1.92501 14.2115 1.9276 14.1757 1.93699C14.1398 1.94639 14.1063 1.96241 14.0771 1.98413C14.0478 2.00585 14.0235 2.03283 14.0053 2.06352L13.1616 3.4461C13.1258 3.5069 13.1166 3.57854 13.1361 3.64565C13.1555 3.71275 13.202 3.76998 13.2656 3.80504Z" stroke="white" stroke-width="0.4" mask="url(#path-3-outside-2_993_577)"/>
</svg>
