<svg width="24" height="24" viewBox="0 0 24 24" fill="none" xmlns="http://www.w3.org/2000/svg">
<path d="M11.4998 18.408C10.2683 18.408 8.99655 18.1068 7.71674 17.5164C6.71462 17.0528 5.70445 16.4108 4.7144 15.6064C3.0442 14.2472 2.01391 12.8999 1.96964 12.8444C1.79658 12.6186 1.79658 12.3095 1.96964 12.0836C2.01391 12.0281 3.0442 10.6808 4.7144 9.32162C5.70445 8.5172 6.71462 7.87525 7.71674 7.41162C8.99655 6.82118 10.2683 6.52002 11.4998 6.52002C12.7314 6.52002 14.0031 6.82118 15.2829 7.41162C16.2851 7.87525 17.2952 8.5172 18.2853 9.32162C19.9555 10.6808 20.9898 12.0281 21.0301 12.0836C21.2031 12.3095 21.2031 12.6186 21.0301 12.8444C20.9858 12.8999 19.9555 14.2472 18.2853 15.6064C17.2952 16.4108 16.2851 17.0528 15.2829 17.5164C14.0031 18.1068 12.7314 18.408 11.4998 18.408ZM3.31385 12.464C4.32402 13.6409 7.66039 17.14 11.4998 17.14C15.3473 17.14 18.6757 13.6409 19.6858 12.464C18.6757 11.2871 15.3393 7.78807 11.4998 7.78807C7.65234 7.78807 4.32402 11.2871 3.31385 12.464Z" fill="white"/>
<path d="M11.4886 15.0905C10.0637 15.0905 8.9043 13.9255 8.9043 12.4937C8.9043 11.0619 10.0637 9.89697 11.4886 9.89697C12.9136 9.89697 14.073 11.0619 14.073 12.4937C14.073 13.9255 12.9136 15.0905 11.4886 15.0905ZM11.4886 11.0511C10.6954 11.0511 10.0529 11.6967 10.0529 12.4937C10.0529 13.2908 10.6954 13.9364 11.4886 13.9364C12.2819 13.9364 12.9244 13.2908 12.9244 12.4937C12.9244 11.6967 12.2819 11.0511 11.4886 11.0511Z" fill="white"/>
<path d="M15.2786 12.4807C15.2786 14.4121 13.6188 16.0298 11.5054 16.0298C9.39206 16.0298 7.73227 14.4121 7.73227 12.4807C7.73227 10.5492 9.39206 8.93149 11.5054 8.93149C13.6188 8.93149 15.2786 10.5492 15.2786 12.4807Z" stroke="white" stroke-width="1.17157"/>
<path fill-rule="evenodd" clip-rule="evenodd" d="M1.84 4H5.2V4.84H1.84V6.92401L1 6.92724V4.84V4H1.84ZM1 17.2449L1.84 17.2417V19.96H5.2V20.8H1.84H1V19.96V17.2449ZM18.5 20.8H21.16H22V19.96V17.253L21.16 17.2562V19.96H18.5V20.8ZM21.16 6.93854V4.84H18.5V4H21.16H22V4.84V6.93531L21.16 6.93854Z" fill="white"/>
</svg>
