<svg width="30" height="30" viewBox="0 0 30 30" fill="none" xmlns="http://www.w3.org/2000/svg">
<mask id="mask0_580_548" style="mask-type:luminance" maskUnits="userSpaceOnUse" x="1" y="1" width="28" height="28">
<path d="M28.3771 1H1V28.3771H28.3771V1Z" fill="white"/>
</mask>
<g mask="url(#mask0_580_548)">
<path d="M14.6885 1C10.9738 1 10.5067 1.01711 9.04714 1.08213C7.5876 1.15057 6.59347 1.37986 5.72254 1.71865C4.80899 2.06226 3.98151 2.60126 3.29796 3.29796C2.60169 3.98187 2.06275 4.80924 1.71865 5.72254C1.37986 6.59176 1.14886 7.5876 1.08213 9.04201C1.01711 10.505 1 10.9704 1 14.6902C1 18.4067 1.01711 18.8721 1.08213 20.3316C1.15057 21.7894 1.37986 22.7836 1.71865 23.6545C2.06942 24.5545 2.53654 25.3177 3.29796 26.0791C4.05767 26.8405 4.82081 27.3093 5.72083 27.6584C6.59347 27.9972 7.58589 28.2282 9.04372 28.2949C10.505 28.3599 10.9704 28.3771 14.6885 28.3771C18.4067 28.3771 18.8704 28.3599 20.3316 28.2949C21.7877 28.2265 22.7853 27.9972 23.6562 27.6584C24.5692 27.3146 25.396 26.7757 26.0791 26.0791C26.8405 25.3177 27.3076 24.5545 27.6584 23.6545C27.9955 22.7836 28.2265 21.7894 28.2949 20.3316C28.3599 18.8721 28.3771 18.4067 28.3771 14.6885C28.3771 10.9704 28.3599 10.505 28.2949 9.04372C28.2265 7.5876 27.9955 6.59176 27.6584 5.72254C27.3143 4.80923 26.7753 3.98184 26.0791 3.29796C25.3957 2.601 24.5682 2.06196 23.6545 1.71865C22.7819 1.37986 21.786 1.14886 20.3299 1.08213C18.8687 1.01711 18.405 1 14.6851 1H14.6902H14.6885ZM13.4617 3.46736H14.6902C18.3451 3.46736 18.778 3.47933 20.2204 3.54607C21.555 3.60595 22.2805 3.8301 22.763 4.01661C23.4013 4.26471 23.8581 4.56244 24.3372 5.04154C24.8163 5.52064 25.1123 5.97578 25.3604 6.61572C25.5487 7.09653 25.7711 7.82202 25.831 9.15665C25.8977 10.5991 25.9114 11.032 25.9114 14.6851C25.9114 18.3382 25.8977 18.7728 25.831 20.2153C25.7711 21.5499 25.5469 22.2737 25.3604 22.7562C25.1409 23.3506 24.7907 23.8879 24.3355 24.3287C23.8564 24.8078 23.4013 25.1038 22.7613 25.3519C22.2822 25.5401 21.5567 25.7625 20.2204 25.8241C18.778 25.8892 18.3451 25.9046 14.6902 25.9046C11.0354 25.9046 10.6008 25.8892 9.15836 25.8241C7.82373 25.7625 7.09995 25.5401 6.61743 25.3519C6.02283 25.1327 5.48493 24.7831 5.04325 24.3287C4.58768 23.8872 4.23686 23.3494 4.01661 22.7545C3.8301 22.2737 3.60595 21.5482 3.54607 20.2136C3.48105 18.7711 3.46736 18.3382 3.46736 14.6817C3.46736 11.0268 3.48105 10.5957 3.54607 9.15323C3.60766 7.8186 3.8301 7.0931 4.01832 6.61058C4.26642 5.97236 4.56415 5.5155 5.04325 5.0364C5.52235 4.55731 5.97749 4.26129 6.61743 4.01319C7.09995 3.82497 7.82373 3.60253 9.15836 3.54093C10.4211 3.48276 10.9105 3.46565 13.4617 3.46393V3.46736ZM21.9965 5.73965C21.7807 5.73965 21.5672 5.78214 21.3678 5.8647C21.1687 5.94724 20.9875 6.06823 20.835 6.22077C20.6824 6.37329 20.5614 6.55438 20.4789 6.75366C20.3963 6.95297 20.3539 7.16656 20.3539 7.38228C20.3539 7.59799 20.3963 7.81158 20.4789 8.01089C20.5614 8.21017 20.6824 8.39126 20.835 8.54378C20.9875 8.69632 21.1687 8.81731 21.3678 8.89985C21.5672 8.98241 21.7807 9.0249 21.9965 9.0249C22.4321 9.0249 22.85 8.85184 23.158 8.54378C23.4661 8.23574 23.6391 7.81793 23.6391 7.38228C23.6391 6.94662 23.4661 6.52881 23.158 6.22077C22.85 5.91271 22.4321 5.73965 21.9965 5.73965ZM14.6902 7.65947C13.7578 7.64492 12.8318 7.81601 11.9662 8.16276C11.1005 8.50952 10.3125 9.02502 9.64798 9.67924C8.98347 10.3335 8.45573 11.1134 8.09552 11.9735C7.7353 12.8336 7.54979 13.7568 7.54979 14.6894C7.54979 15.6219 7.7353 16.5451 8.09552 17.4053C8.45573 18.2653 8.98347 19.0452 9.64798 19.6996C10.3125 20.3537 11.1005 20.8692 11.9662 21.2161C12.8318 21.5627 13.7578 21.7338 14.6902 21.7193C16.5357 21.6905 18.2958 20.9372 19.5907 19.622C20.8855 18.3067 21.6113 16.5351 21.6113 14.6894C21.6113 12.8437 20.8855 11.072 19.5907 9.75681C18.2958 8.44158 16.5357 7.68826 14.6902 7.65947ZM14.6902 10.1251C15.9005 10.1251 17.0612 10.6059 17.917 11.4617C18.7728 12.3175 19.2536 13.4782 19.2536 14.6885C19.2536 15.8988 18.7728 17.0595 17.917 17.9153C17.0612 18.7711 15.9005 19.2519 14.6902 19.2519C13.4799 19.2519 12.3192 18.7711 11.4634 17.9153C10.6076 17.0595 10.1268 15.8988 10.1268 14.6885C10.1268 13.4782 10.6076 12.3175 11.4634 11.4617C12.3192 10.6059 13.4799 10.1251 14.6902 10.1251Z" fill="white"/>
</g>
</svg>
