<svg width="512" height="512" viewBox="0 0 512 512" fill="none" xmlns="http://www.w3.org/2000/svg">
<path d="M232.8 235.84C232.321 234.53 231.508 233.369 230.441 232.471C229.375 231.573 228.092 230.969 226.72 230.72C225.299 230.425 223.823 230.539 222.464 231.048C221.104 231.558 219.917 232.443 219.04 233.6C206.157 249.856 188.458 261.618 168.48 267.2C153.286 271.416 137.275 271.747 121.92 268.16C120.517 267.841 119.053 267.907 117.684 268.351C116.315 268.794 115.09 269.599 114.14 270.68C113.19 271.761 112.549 273.079 112.285 274.494C112.021 275.909 112.144 277.368 112.64 278.72L115.2 286.24C119.682 298.742 127.943 309.54 138.837 317.138C149.731 324.735 162.719 328.755 176 328.64C183.301 328.6 190.544 327.356 197.44 324.96C213.374 319.244 226.393 307.448 233.65 292.155C240.907 276.862 241.809 259.317 236.16 243.36L232.8 235.84ZM218.56 285.28C213.265 296.647 203.732 305.491 192 309.92C180.014 314.157 166.837 313.466 155.36 308C145.66 303.449 137.811 295.713 133.12 286.08C149.462 287.626 165.945 285.561 181.401 280.031C196.857 274.502 210.908 265.642 222.56 254.08C224.873 264.629 223.46 275.654 218.56 285.28ZM110.56 177.76C109.806 175.784 108.315 174.177 106.4 173.28C104.453 172.479 102.268 172.479 100.32 173.28L40.1602 194.4C38.1842 195.153 36.578 196.645 35.6802 198.56C34.88 200.507 34.88 202.692 35.6802 204.64C37.3704 209.552 40.0241 214.078 43.4859 217.952C46.9477 221.826 51.1478 224.97 55.8402 227.2C61.1547 229.856 67.019 231.226 72.9602 231.2C77.5452 231.182 82.0925 230.37 86.4002 228.8C91.3705 227.036 95.9321 224.284 99.8094 220.709C103.687 217.134 106.8 212.811 108.96 208C113.47 198.527 114.045 187.655 110.56 177.76ZM94.5602 201.44C91.8378 207.186 86.9465 211.617 80.9602 213.76C76.3 215.416 71.2399 215.582 66.4811 214.235C61.7223 212.887 57.5003 210.093 54.4002 206.24L96.9602 192C96.847 195.282 96.0285 198.502 94.5602 201.44ZM441.44 197.76C430.883 197.715 420.73 201.812 413.161 209.172C405.592 216.531 401.211 226.566 400.96 237.12C400.971 239.25 401.769 241.301 403.2 242.88C404.745 244.383 406.805 245.241 408.96 245.28L472.96 246.08C475.054 246.08 477.065 245.259 478.561 243.793C480.057 242.327 480.918 240.333 480.96 238.24C481.074 232.997 480.127 227.785 478.174 222.919C476.222 218.052 473.306 213.63 469.6 209.92C465.965 206.104 461.597 203.06 456.759 200.971C451.92 198.882 446.71 197.789 441.44 197.76ZM418.56 229.76C420.317 225.129 423.419 221.13 427.469 218.278C431.518 215.427 436.328 213.853 441.28 213.76C447.6 213.9 453.62 216.481 458.08 220.96C460.54 223.502 462.399 226.564 463.52 229.92L418.56 229.76ZM491.04 126.08L487.2 116.64L479.04 122.56C447.23 144.824 409.224 156.522 370.4 156C337.803 155.534 305.904 146.483 277.92 129.76C265.294 100.923 248.054 74.3345 226.88 51.0395L220.16 43.5195L214.4 51.9995C192.274 83.7575 160.781 107.811 124.32 120.8C87.7588 133.89 47.9913 135.066 10.7202 124.16L0.960187 121.28V131.52C-2.05776 182.898 9.00659 234.126 32.9602 279.68C66.4002 341.92 139.68 416 202.88 416C211.326 416.062 219.717 414.654 227.68 411.84C242.915 405.92 256.054 395.62 265.44 382.24C283.84 416 317.92 464 366.08 464H367.04C438.4 464 495.04 355.52 508.32 276.64C516.503 225.713 510.525 173.517 491.04 125.76V126.08ZM222.4 396C164 416.96 81.4402 336 46.7202 272C25.5989 232.067 15.0249 187.403 16.0002 142.24C53.6814 151.1 93.1161 148.934 129.6 136C166.045 122.906 197.972 99.641 221.6 68.9595C251.008 103.287 271.067 144.618 279.84 188.96C293.44 260.32 280.8 375.36 222.4 396ZM492.48 273.76C480.32 345.44 428.48 449.76 366.4 447.84C334.4 447.84 300.96 417.6 275.36 365.92C293.387 327.758 302.105 285.865 300.8 243.68H329.12C331.202 243.64 333.191 242.807 334.678 241.349C336.165 239.891 337.039 237.92 337.12 235.84C337.205 230.594 336.253 225.384 334.318 220.507C332.384 215.631 329.506 211.185 325.849 207.423C322.192 203.662 317.828 200.66 313.008 198.59C308.187 196.52 303.006 195.422 297.76 195.36C297.76 192 296.64 188.64 296.16 185.44C293.889 174.061 290.896 162.838 287.2 151.84C313.291 164.156 341.712 170.757 370.56 171.2C409.17 171.706 447.128 161.217 480 140.96C495.466 183.427 499.763 229.155 492.48 273.76ZM299.2 212C304.955 212.416 310.36 214.919 314.4 219.04C316.94 221.548 318.858 224.617 320 228H300.32C300 222.4 299.68 217.12 299.2 212ZM368.32 292H368C351.191 291.998 335.057 298.609 323.081 310.404C311.106 322.2 304.252 338.233 304 355.04V362.88C304 364.321 304.367 365.738 305.067 366.998C305.767 368.258 306.777 369.318 308 370.08C309.246 370.78 310.651 371.149 312.08 371.149C313.509 371.149 314.915 370.78 316.16 370.08C329.608 361.785 344.876 356.897 360.64 355.84C381.414 354.823 401.974 360.425 419.36 371.84C420.595 372.572 422.004 372.958 423.44 372.958C424.876 372.958 426.285 372.572 427.52 371.84C428.772 371.136 429.815 370.114 430.546 368.878C431.276 367.642 431.667 366.235 431.68 364.8V356.8C431.722 348.395 430.109 340.064 426.931 332.283C423.754 324.502 419.075 317.423 413.162 311.451C407.248 305.478 400.216 300.729 392.468 297.473C384.719 294.218 376.405 292.521 368 292.48L368.32 292ZM365.92 340H359.04C345.544 340.869 332.318 344.176 320 349.76C321.559 338.168 327.297 327.545 336.135 319.885C344.974 312.225 356.305 308.055 368 308.16C374.29 308.217 380.504 309.535 386.275 312.036C392.046 314.537 397.257 318.17 401.6 322.72C409.434 330.561 414.201 340.948 415.04 352C399.778 344.355 382.988 340.253 365.92 340ZM235.68 124.8L176 146.24C174.994 146.552 174.062 147.069 173.264 147.757C172.466 148.445 171.818 149.29 171.36 150.24C170.551 152.241 170.551 154.478 171.36 156.48C174.059 164.083 179.012 170.684 185.558 175.4C192.104 180.117 199.933 182.726 208 182.88C212.524 182.918 217.019 182.159 221.28 180.64C226.266 178.935 230.863 176.254 234.802 172.754C238.741 169.254 241.944 165.004 244.223 160.253C246.501 155.501 247.811 150.344 248.075 145.081C248.339 139.818 247.552 134.555 245.76 129.6C245.42 128.618 244.887 127.714 244.195 126.94C243.502 126.166 242.662 125.538 241.724 125.091C240.786 124.645 239.769 124.389 238.731 124.339C237.694 124.289 236.657 124.445 235.68 124.8ZM229.76 153.28C227.061 158.984 222.237 163.406 216.32 165.6C211.657 167.232 206.604 167.386 201.851 166.04C197.097 164.694 192.875 161.914 189.76 158.08L232.16 143.04C232.166 146.593 231.344 150.099 229.76 153.28Z" fill="white"/>
</svg>
