<svg width="30" height="30" viewBox="0 0 30 30" fill="none" xmlns="http://www.w3.org/2000/svg">
<path d="M15.5944 0C7.3725 0 3 5.26875 3 11.0138C3 13.6781 4.48875 17.0006 6.87188 18.0544C7.23375 18.2175 7.43063 18.1481 7.51125 17.8125C7.5825 17.5575 7.89563 16.3294 8.0475 15.75C8.07449 15.6596 8.07691 15.5637 8.0545 15.4721C8.03209 15.3805 7.98566 15.2965 7.92 15.2287C7.12875 14.3137 6.50063 12.6469 6.50063 11.0831C6.50063 7.07625 9.68625 3.18563 15.1069 3.18563C19.7944 3.18563 23.0738 6.23062 23.0738 10.5862C23.0738 15.5081 20.4694 18.9131 17.085 18.9131C15.2119 18.9131 13.8169 17.4431 14.2594 15.6244C14.7938 13.4588 15.8419 11.13 15.8419 9.56813C15.8419 8.1675 15.0506 7.00875 13.4344 7.00875C11.5275 7.00875 9.98063 8.89688 9.98063 11.4319C9.98063 13.0425 10.5506 14.13 10.5506 14.13L8.31375 23.1731C7.72125 25.5825 8.39438 29.4844 8.4525 29.82C8.48813 30.0056 8.69625 30.0637 8.8125 29.9119C8.99813 29.6681 11.2781 26.415 11.9175 24.0637C12.15 23.2069 13.1044 19.7325 13.1044 19.7325C13.7325 20.8669 15.5456 21.8175 17.4769 21.8175C23.2219 21.8175 27.3731 16.7681 27.3731 10.5019C27.3525 4.49437 22.2113 0 15.5944 0Z" fill="white"/>
</svg>
