<svg width="533" height="512" viewBox="0 0 533 512" fill="none" xmlns="http://www.w3.org/2000/svg">
<g clip-path="url(#clip0_650_14)">
<path d="M501.551 156.735H31.3469M501.551 156.735C507.093 156.735 512.409 154.534 516.328 150.614C520.247 146.695 522.449 141.38 522.449 135.837C522.449 130.295 520.247 124.979 516.328 121.06C512.409 117.141 507.093 114.939 501.551 114.939H31.3469C25.8044 114.939 20.489 117.141 16.5698 121.06C12.6507 124.979 10.449 130.295 10.449 135.837C10.449 141.38 12.6507 146.695 16.5698 150.614C20.489 154.534 25.8044 156.735 31.3469 156.735M501.551 156.735V417.96M31.3469 156.735V417.96M501.551 459.756H31.3469M501.551 459.756C507.093 459.756 512.409 457.554 516.328 453.635C520.247 449.716 522.449 444.4 522.449 438.858C522.449 433.315 520.247 428 516.328 424.081C512.409 420.162 507.093 417.96 501.551 417.96M501.551 459.756V480.654C501.551 486.196 499.349 491.512 495.43 495.431C491.511 499.35 486.196 501.552 480.653 501.552H459.755C454.213 501.552 448.897 499.35 444.978 495.431C441.059 491.512 438.857 486.196 438.857 480.654V459.756M31.3469 459.756C25.8044 459.756 20.489 457.554 16.5698 453.635C12.6507 449.716 10.449 444.4 10.449 438.858C10.449 433.315 12.6507 428 16.5698 424.081C20.489 420.162 25.8044 417.96 31.3469 417.96M31.3469 459.756V480.654C31.3469 486.196 33.5487 491.512 37.4678 495.431C41.3869 499.35 46.7024 501.552 52.2449 501.552H73.1428C78.6853 501.552 84.0008 499.35 87.9199 495.431C91.8391 491.512 94.0408 486.196 94.0408 480.654V459.756M31.3469 417.96H501.551" stroke="white" stroke-width="20" stroke-linecap="round" stroke-linejoin="round"/>
<path d="M266.449 374.806C315.126 374.806 354.586 335.345 354.586 286.668C354.586 237.992 315.126 198.531 266.449 198.531C217.772 198.531 178.312 237.992 178.312 286.668C178.312 335.345 217.772 374.806 266.449 374.806Z" stroke="white" stroke-width="20" stroke-linecap="round" stroke-linejoin="round"/>
<path d="M270.284 238.874L241.559 283.795L292.373 291.161L263.283 334.974M31.3469 114.939V94.0411C31.3469 88.4986 33.5487 83.1831 37.4678 79.264C41.3869 75.3448 46.7024 73.1431 52.2449 73.1431M52.2449 73.1431H94.0408M52.2449 73.1431V52.2451C52.2449 46.7027 54.4466 41.3872 58.3658 37.468C62.2849 33.5489 67.6004 31.3472 73.1428 31.3472M94.0408 73.1431C99.5833 73.1431 104.899 75.3448 108.818 79.264C112.737 83.1831 114.939 88.4986 114.939 94.0411V114.939M94.0408 73.1431V52.2451C94.0408 46.7027 91.8391 41.3872 87.9199 37.468C84.0008 33.5489 78.6853 31.3472 73.1428 31.3472M73.1428 31.3472V10.4492M417.959 114.939V94.0411C417.959 88.4986 420.161 83.1831 424.08 79.264C427.999 75.3448 433.315 73.1431 438.857 73.1431M438.857 73.1431H480.653M438.857 73.1431V52.2451C438.857 46.7027 441.059 41.3872 444.978 37.468C448.897 33.5489 454.213 31.3472 459.755 31.3472M480.653 73.1431C486.196 73.1431 491.511 75.3448 495.43 79.264C499.349 83.1831 501.551 88.4986 501.551 94.0411V114.939M480.653 73.1431V52.2451C480.653 46.7027 478.451 41.3872 474.532 37.468C470.613 33.5489 465.298 31.3472 459.755 31.3472M459.755 31.3472V10.4492M73.1428 156.735V417.959M459.755 156.735V417.959M397.061 156.735V417.959M135.837 417.959V156.735M73.1428 208.98H135.837M73.1428 261.225H135.837M73.1428 313.47H135.837M73.1428 365.715H135.837M397.061 208.98H459.755M397.061 261.225H459.755M397.061 313.47H459.755M397.061 365.715H459.755" stroke="white" stroke-width="20" stroke-linecap="round" stroke-linejoin="round"/>
</g>
<defs>
<clipPath id="clip0_650_14">
<rect width="532.898" height="512" fill="white"/>
</clipPath>
</defs>
</svg>
