<svg width="30" height="30" viewBox="0 0 30 30" fill="none" xmlns="http://www.w3.org/2000/svg">
<path d="M9.7955 26.7512C20.362 26.7512 26.1422 17.996 26.1422 10.4167C26.1422 10.1717 26.1423 9.92321 26.1318 9.67821C27.2572 8.86356 28.2284 7.85499 29 6.69971C27.9488 7.16321 26.8349 7.46867 25.6943 7.60621C26.8956 6.88808 27.7955 5.75815 28.2265 4.42646C27.0977 5.09518 25.8622 5.56462 24.5742 5.81421C23.7083 4.89201 22.5624 4.28107 21.3142 4.07604C20.0659 3.87101 18.7847 4.08333 17.6693 4.6801C16.5539 5.27689 15.6664 6.22481 15.1443 7.37708C14.6222 8.52933 14.4946 9.8216 14.7812 11.0537C12.497 10.9392 10.2624 10.3458 8.22232 9.31202C6.18222 8.27824 4.38219 6.82719 2.939 5.05296C2.20635 6.31836 1.98275 7.81517 2.31363 9.23943C2.64451 10.6637 3.50504 11.9086 4.7205 12.7215C3.80969 12.6905 2.91891 12.4459 2.12 12.0075V12.0862C2.12157 13.4118 2.58079 14.6962 3.42002 15.7223C4.25927 16.7484 5.42706 17.4532 6.726 17.7177C6.23296 17.8535 5.72365 17.9212 5.21225 17.919C4.85172 17.9201 4.49191 17.8867 4.13775 17.8192C4.50488 18.9604 5.21972 19.9581 6.18219 20.6726C7.14464 21.3871 8.30648 21.7828 9.505 21.804C7.46898 23.4031 4.95395 24.2704 2.365 24.2662C1.90881 24.2681 1.45294 24.2419 1 24.1875C3.62764 25.8627 6.67928 26.7523 9.7955 26.7512Z" fill="white"/>
</svg>
