<svg width="448" height="512" viewBox="0 0 448 512" fill="none" xmlns="http://www.w3.org/2000/svg">
<path d="M88 40C73.7597 40 59.8393 44.2227 47.9989 52.1342C36.1586 60.0457 26.9302 71.2905 21.4807 84.4468C16.0312 97.6031 14.6053 112.08 17.3835 126.047C20.1616 140.013 27.0189 152.842 37.0883 162.912C47.1577 172.981 59.9869 179.838 73.9535 182.617C87.9201 185.395 102.397 183.969 115.553 178.519C128.709 173.07 139.954 163.841 147.866 152.001C155.777 140.161 160 126.24 160 112C159.979 92.9109 152.386 74.6097 138.888 61.1117C125.39 47.6137 107.089 40.0212 88 40ZM88 144C81.671 144 75.4841 142.123 70.2218 138.607C64.9594 135.091 60.8579 130.093 58.4359 124.246C56.0138 118.399 55.3801 111.965 56.6149 105.757C57.8496 99.5497 60.8973 93.8479 65.3726 89.3726C69.8479 84.8973 75.5497 81.8496 81.7571 80.6149C87.9645 79.3801 94.3986 80.0138 100.246 82.4359C106.093 84.8579 111.091 88.9594 114.607 94.2218C118.123 99.4841 120 105.671 120 112C119.989 120.484 116.615 128.617 110.616 134.616C104.617 140.615 96.4837 143.989 88 144ZM268 0C249.804 0 232.017 5.39571 216.888 15.5048C201.758 25.6139 189.966 39.9823 183.003 56.7931C176.04 73.6039 174.218 92.1021 177.768 109.948C181.318 127.795 190.08 144.187 202.946 157.054C215.813 169.92 232.205 178.682 250.052 182.232C267.898 185.782 286.396 183.96 303.207 176.997C320.018 170.034 334.386 158.242 344.495 143.112C354.604 127.983 360 110.196 360 92C359.972 67.6085 350.271 44.224 333.023 26.9766C315.776 9.72919 292.391 0.0275263 268 0ZM268 132C260.089 132 252.355 129.654 245.777 125.259C239.199 120.864 234.072 114.616 231.045 107.307C228.017 99.9983 227.225 91.9556 228.769 84.1964C230.312 76.4371 234.122 69.3098 239.716 63.7157C245.31 58.1216 252.437 54.312 260.196 52.7686C267.956 51.2252 275.998 52.0173 283.307 55.0448C290.616 58.0723 296.864 63.1992 301.259 69.7772C305.654 76.3552 308 84.0887 308 92C307.988 102.605 303.77 112.772 296.271 120.271C288.772 127.77 278.605 131.988 268 132ZM440 214.176C437.611 212.762 434.89 212.007 432.115 211.988C429.339 211.969 426.608 212.687 424.2 214.068C424.068 214.14 423.939 214.216 423.812 214.296C423.812 214.296 376.416 244 376 244H348V260H368V324H348V340H376C376.416 340 424.068 369.86 424.2 369.932C426.646 371.298 429.409 371.998 432.21 371.961C435.012 371.924 437.755 371.153 440.165 369.723C442.574 368.293 444.566 366.256 445.941 363.815C447.316 361.373 448.026 358.614 448 355.812V228.188C448.022 225.354 447.294 222.565 445.888 220.104C444.483 217.643 442.452 215.597 440 214.176ZM152 176C152 178.122 152.843 180.157 154.343 181.657C155.843 183.157 157.878 184 160 184H192C194.122 184 196.157 183.157 197.657 181.657C199.157 180.157 200 178.122 200 176C200 173.878 199.157 171.843 197.657 170.343C196.157 168.843 194.122 168 192 168H160C157.878 168 155.843 168.843 154.343 170.343C152.843 171.843 152 173.878 152 176ZM308 200H44C37.6371 200.007 31.5369 202.538 27.0376 207.038C22.5384 211.537 20.0074 217.637 20 224V264H8C5.87827 264 3.84344 264.843 2.34315 266.343C0.842856 267.843 0 269.878 0 272C0 274.122 0.842856 276.157 2.34315 277.657C3.84344 279.157 5.87827 280 8 280H20V360C20.0074 366.363 22.5384 372.463 27.0376 376.962C31.5369 381.462 37.6371 383.993 44 384H104V392C104.007 398.363 106.538 404.463 111.038 408.962C115.537 413.462 121.637 415.993 128 416H168V427.46L100.212 498.48C99.4866 499.24 98.918 500.136 98.5386 501.115C98.1593 502.095 97.9767 503.14 98.0012 504.191C98.0257 505.241 98.2569 506.276 98.6815 507.237C99.1061 508.199 99.7159 509.067 100.476 509.792C101.236 510.517 102.132 511.086 103.111 511.465C104.091 511.845 105.136 512.027 106.187 512.003C107.237 511.978 108.272 511.747 109.233 511.322C110.195 510.898 111.063 510.288 111.788 509.528L168 450.632V504C168 506.122 168.843 508.157 170.343 509.657C171.843 511.157 173.878 512 176 512C178.122 512 180.157 511.157 181.657 509.657C183.157 508.157 184 506.122 184 504V450.632L240.212 509.524C241.677 511.059 243.692 511.949 245.813 511.999C247.935 512.048 249.989 511.253 251.524 509.788C253.059 508.323 253.949 506.308 253.999 504.187C254.048 502.065 253.253 500.011 251.788 498.476L184 427.46V416H224C230.363 415.993 236.463 413.462 240.962 408.962C245.462 404.463 247.993 398.363 248 392V384H308C314.363 383.993 320.463 381.462 324.962 376.962C329.462 372.463 331.993 366.363 332 360V224C331.993 217.637 329.462 211.537 324.962 207.038C320.463 202.538 314.363 200.007 308 200ZM68 344C66.4177 344 64.871 343.531 63.5554 342.652C62.2398 341.773 61.2145 340.523 60.609 339.061C60.0035 337.6 59.845 335.991 60.1537 334.439C60.4624 332.887 61.2243 331.462 62.3431 330.343C63.462 329.224 64.8874 328.462 66.4393 328.154C67.9911 327.845 69.5997 328.003 71.0615 328.609C72.5233 329.214 73.7727 330.24 74.6518 331.555C75.5308 332.871 76 334.418 76 336C76 338.122 75.1571 340.157 73.6569 341.657C72.1566 343.157 70.1217 344 68 344ZM100 344C98.4177 344 96.871 343.531 95.5554 342.652C94.2398 341.773 93.2145 340.523 92.609 339.061C92.0035 337.6 91.845 335.991 92.1537 334.439C92.4624 332.887 93.2243 331.462 94.3431 330.343C95.462 329.224 96.8874 328.462 98.4393 328.154C99.9911 327.845 101.6 328.003 103.061 328.609C104.523 329.214 105.773 330.24 106.652 331.555C107.531 332.871 108 334.418 108 336C108 338.122 107.157 340.157 105.657 341.657C104.157 343.157 102.122 344 100 344ZM132 328C133.582 328 135.129 328.469 136.445 329.348C137.76 330.227 138.786 331.477 139.391 332.939C139.997 334.4 140.155 336.009 139.846 337.561C139.538 339.113 138.776 340.538 137.657 341.657C136.538 342.776 135.113 343.538 133.561 343.846C132.009 344.155 130.4 343.997 128.939 343.391C127.477 342.786 126.227 341.76 125.348 340.445C124.469 339.129 124 337.582 124 336C124 333.878 124.843 331.843 126.343 330.343C127.843 328.843 129.878 328 132 328ZM232 392C231.998 394.121 231.154 396.155 229.655 397.655C228.155 399.154 226.121 399.998 224 400H128C125.879 399.998 123.845 399.154 122.345 397.655C120.846 396.155 120.002 394.121 120 392V384H232V392Z" fill="white"/>
</svg>
