<svg width="512" height="512" viewBox="0 0 512 512" fill="none" xmlns="http://www.w3.org/2000/svg">
<g clip-path="url(#clip0_650_9)">
<path d="M488 44H24C17.6369 44.0069 11.5365 46.5377 7.03711 51.0371C2.53774 55.5365 0.00694557 61.6369 0 68L0 412C0.00694557 418.363 2.53774 424.464 7.03711 428.963C11.5365 433.462 17.6369 435.993 24 436H184V452H128C125.878 452 123.843 452.843 122.343 454.343C120.843 455.843 120 457.878 120 460C120 462.122 120.843 464.157 122.343 465.657C123.843 467.157 125.878 468 128 468H384C386.122 468 388.157 467.157 389.657 465.657C391.157 464.157 392 462.122 392 460C392 457.878 391.157 455.843 389.657 454.343C388.157 452.843 386.122 452 384 452H328V436H488C494.363 435.993 500.464 433.462 504.963 428.963C509.462 424.464 511.993 418.363 512 412V68C511.993 61.6369 509.462 55.5365 504.963 51.0371C500.464 46.5377 494.363 44.0069 488 44ZM312 452H200V436H312V452ZM496 412C495.998 414.121 495.154 416.155 493.655 417.655C492.155 419.154 490.121 419.998 488 420H24C21.8789 419.998 19.8453 419.154 18.3455 417.655C16.8457 416.155 16.0021 414.121 16 412V404H496V412ZM496 388H16V68C16.0021 65.8789 16.8457 63.8453 18.3455 62.3455C19.8453 60.8457 21.8789 60.0021 24 60H488C490.121 60.0021 492.155 60.8457 493.655 62.3455C495.154 63.8453 495.998 65.8789 496 68V388Z" fill="white"/>
<path d="M80 184H96C100.242 183.995 104.309 182.308 107.308 179.308C110.308 176.309 111.995 172.242 112 168V144C111.995 139.758 110.308 135.691 107.308 132.692C104.309 129.692 100.242 128.005 96 128H80C75.758 128.005 71.6912 129.692 68.6917 132.692C65.6921 135.691 64.0048 139.758 64 144V168C64.0048 172.242 65.6921 176.309 68.6917 179.308C71.6912 182.308 75.758 183.995 80 184ZM80 144H96V168L80 168.01V144ZM80 256H96C100.242 255.995 104.309 254.308 107.308 251.308C110.308 248.309 111.995 244.242 112 240V216C111.995 211.758 110.308 207.691 107.308 204.692C104.309 201.692 100.242 200.005 96 200H80C75.758 200.005 71.6912 201.692 68.6917 204.692C65.6921 207.691 64.0048 211.758 64 216V240C64.0048 244.242 65.6921 248.309 68.6917 251.308C71.6912 254.308 75.758 255.995 80 256ZM80 216H96V240L80 240.01V216ZM80 328H96C100.242 327.995 104.309 326.308 107.308 323.308C110.308 320.309 111.995 316.242 112 312V288C111.995 283.758 110.308 279.691 107.308 276.692C104.309 273.692 100.242 272.005 96 272H80C75.758 272.005 71.6912 273.692 68.6917 276.692C65.6921 279.691 64.0048 283.758 64 288V312C64.0048 316.242 65.6921 320.309 68.6917 323.308C71.6912 326.308 75.758 327.995 80 328ZM80 288H96V312L80 312.01V288Z" fill="white"/>
<path d="M296 344V270.413L280 266.355V344H144V236H208.74C202.909 231.182 197.546 225.825 192.72 220H144V112H280V183.938L296 188.095V112H304.136L302.994 96H55.0081C48.7776 96.141 42.8571 98.7464 38.5443 103.245C34.2315 107.744 31.8781 113.769 32.0001 120V336C31.8781 342.231 34.2315 348.256 38.5443 352.755C42.8571 357.254 48.7776 359.859 55.0081 360H311.068C308.25 355.011 306.227 349.613 305.074 344H296ZM128 344H55.0081C53.022 343.858 51.1722 342.938 49.8601 341.44C48.5481 339.942 47.8797 337.988 48.0001 336V120C47.8797 118.012 48.5481 116.058 49.8601 114.56C51.1722 113.062 53.022 112.142 55.0081 112H128V344Z" fill="white"/>
<path d="M450.064 227.918C444.08 226.456 437.841 226.373 431.82 227.674C425.798 228.976 420.151 231.628 415.305 235.431L385.934 227.8C383.337 223.611 379.911 219.997 375.865 217.183L371.719 153.832C370.775 138.928 366.649 124.4 359.62 111.225C352.59 98.0499 342.82 86.5334 330.967 77.4508C329.743 76.5166 328.275 75.9556 326.74 75.8351C325.204 75.7146 323.667 76.0396 322.312 76.7713C320.957 77.5029 319.842 78.61 319.101 79.9597C318.359 81.3094 318.023 82.8444 318.133 84.3804L327.284 212.563L201.943 179.998C200.45 179.609 198.876 179.661 197.412 180.147C195.947 180.633 194.654 181.532 193.689 182.736C192.724 183.94 192.128 185.397 191.972 186.933C191.817 188.468 192.109 190.015 192.813 191.388C199.691 204.676 209.32 216.346 221.059 225.623C232.797 234.899 246.377 241.57 260.895 245.191L323.121 260.972C325.108 265.458 327.988 269.493 331.587 272.828L333.715 302.634C329.066 306.646 325.4 311.671 323 317.322C320.6 322.974 319.528 329.101 319.869 335.232C320.445 345.247 324.838 354.66 332.143 361.536C339.449 368.411 349.111 372.225 359.143 372.193C361.539 372.192 363.931 371.977 366.289 371.548C374.775 369.909 382.511 365.594 388.364 359.235C394.216 352.876 397.876 344.808 398.807 336.216C399.543 329.053 398.294 321.825 395.196 315.324C392.097 308.823 387.27 303.301 381.242 299.361L379.669 275.312L403.318 281.31C406.146 287.942 410.733 293.674 416.583 297.888C422.433 302.101 429.324 304.636 436.51 305.216C437.666 305.322 438.82 305.374 439.973 305.374C448.029 305.332 455.89 302.896 462.559 298.377C469.228 293.857 474.403 287.458 477.428 279.992C479.429 274.843 480.311 269.327 480.016 263.811C479.721 258.295 478.256 252.905 475.717 248C473.111 243.024 469.475 238.66 465.052 235.197C460.629 231.735 455.52 229.253 450.064 227.918ZM320.085 243.696L264.828 229.683C246.648 225.119 230.342 215.004 218.176 200.746L324.786 228.444C322.073 233.102 320.465 238.32 320.085 243.696ZM375.237 244.577C375.549 247.144 375.347 249.747 374.642 252.234C373.937 254.722 372.744 257.044 371.133 259.066C369.521 261.088 367.523 262.768 365.255 264.01C362.987 265.251 360.494 266.028 357.922 266.296C357.259 266.363 356.593 266.397 355.926 266.397C351.012 266.361 346.282 264.526 342.631 261.237C338.98 257.949 336.66 253.437 336.112 248.554C335.799 245.987 336.002 243.384 336.706 240.897C337.411 238.409 338.604 236.087 340.216 234.065C341.827 232.043 343.825 230.363 346.094 229.121C348.362 227.88 350.854 227.103 353.426 226.835C354.089 226.768 354.756 226.734 355.423 226.734C360.336 226.77 365.066 228.606 368.717 231.894C372.368 235.182 374.688 239.694 375.237 244.577ZM355.754 154.875L359.425 210.98C358.097 210.823 356.76 210.741 355.423 210.734C351.303 210.729 347.214 211.454 343.348 212.876L335.57 103.927C347.492 118.362 354.556 136.191 355.754 154.875ZM382.877 334.705C382.318 339.839 380.128 344.658 376.629 348.456C373.13 352.254 368.505 354.83 363.434 355.806C360.179 356.428 356.83 356.347 353.609 355.569C350.389 354.791 347.371 353.335 344.759 351.297C342.147 349.259 340 346.687 338.462 343.752C336.924 340.818 336.031 337.589 335.842 334.281C335.616 330.116 336.477 325.965 338.338 322.233C340.2 318.501 343 315.318 346.463 312.994C347.632 312.208 348.572 311.127 349.19 309.862C349.808 308.596 350.08 307.19 349.981 305.785L348.25 281.537C353.448 282.729 358.853 282.693 364.035 281.431L365.557 304.685C365.648 306.086 366.107 307.439 366.887 308.607C367.667 309.775 368.74 310.716 370 311.337C374.278 313.449 377.805 316.821 380.108 320.999C382.41 325.177 383.377 329.96 382.877 334.705ZM462.502 274.226C460.544 279.02 457.109 283.064 452.695 285.772C448.282 288.48 443.12 289.71 437.959 289.283C433.182 288.923 428.628 287.115 424.904 284.101C421.181 281.086 418.465 277.008 417.119 272.41C416.735 271.063 416.004 269.841 414.999 268.865C413.994 267.89 412.75 267.195 411.393 266.851L388.42 261.025C390.511 256.206 391.504 250.982 391.326 245.732L415.396 251.986C416.747 252.337 418.165 252.329 419.512 251.963C420.858 251.596 422.085 250.884 423.07 249.896C426.054 246.928 429.749 244.777 433.803 243.648C437.857 242.519 442.133 242.45 446.221 243.449C449.472 244.239 452.518 245.711 455.157 247.769C457.795 249.827 459.966 252.423 461.523 255.384C463.033 258.269 463.902 261.447 464.071 264.698C464.24 267.95 463.705 271.2 462.502 274.226Z" fill="white"/>
</g>
<defs>
<clipPath id="clip0_650_9">
<rect width="512" height="512" fill="white"/>
</clipPath>
</defs>
</svg>
