<svg width="512" height="512" viewBox="0 0 512 512" fill="none" xmlns="http://www.w3.org/2000/svg">
<path d="M498.078 169.816C491.443 166.107 483.346 166.316 476.921 170.234L421.181 204.503V183.712C421.181 159.264 401.33 139.413 376.882 139.413H360.426C376.62 124.734 386.807 103.681 386.807 80.1731C386.807 35.9791 350.866 0.0380859 306.671 0.0380859C276.79 0.0380859 250.722 16.4931 236.931 40.7331C223.14 16.4941 197.072 0.0380859 167.243 0.0380859C123.1 0.0380859 87.1599 35.9791 87.1599 80.1731C87.1599 103.681 97.3469 124.734 113.489 139.413H97.0869C72.6389 139.413 52.7879 159.264 52.7879 183.712V208.421H36.3329C18.1009 208.421 3.26489 223.257 3.26489 241.489V288.035C3.26489 306.267 18.1009 321.102 36.3329 321.102H52.7889V345.812C52.7889 370.208 72.6399 390.111 97.0879 390.111H212.746L114.535 494.381C110.617 498.56 110.826 505.194 115.005 509.112C119.184 513.082 125.819 512.873 129.789 508.694L226.536 405.939V501.485C226.536 507.284 231.185 511.933 236.984 511.933C242.731 511.933 247.432 507.284 247.432 501.485V405.99L344.18 508.693C348.15 512.872 354.785 513.081 358.964 509.111C363.143 505.141 363.352 498.559 359.382 494.38L261.119 390.11H376.882C401.33 390.11 421.181 370.207 421.181 345.811V325.019L476.921 359.236C480.264 361.326 484.078 362.318 487.891 362.318C491.391 362.318 494.891 361.43 498.078 359.654C504.66 355.997 508.735 348.997 508.735 341.422V188.047C508.735 180.472 504.661 173.524 498.078 169.816ZM306.672 20.9331C339.322 20.9331 365.912 47.5231 365.912 80.1721C365.912 112.665 339.635 139.098 307.194 139.412H306.097C273.656 139.099 247.38 112.665 247.38 80.1721C247.381 47.5231 273.97 20.9331 306.672 20.9331ZM252.866 139.412H221.052C227.321 133.718 232.702 127.031 236.933 119.613C241.164 127.031 246.545 133.718 252.866 139.412ZM108.057 80.1721C108.057 47.5221 134.595 20.9331 167.245 20.9331C199.895 20.9331 226.485 47.5231 226.485 80.1721C226.485 112.665 200.208 139.098 167.767 139.412H166.67C134.334 139.099 108.057 112.665 108.057 80.1721ZM400.286 345.811C400.286 358.714 389.786 369.214 376.883 369.214H97.0869C84.1839 369.214 73.6839 358.714 73.6839 345.811V183.711C73.6839 170.808 84.1839 160.308 97.0869 160.308H376.882C389.785 160.308 400.285 170.808 400.285 183.711V345.811H400.286Z" fill="white"/>
<path d="M212.641 228.428V301.041C212.641 316.138 200.365 328.415 185.268 328.415H133.55C118.453 328.415 106.177 316.139 106.177 301.041V228.428C106.177 213.331 118.453 201.107 133.55 201.107H185.267C200.365 201.107 212.641 213.331 212.641 228.428ZM204.701 80.1718C204.701 100.807 187.88 117.628 167.245 117.628C146.663 117.628 129.894 100.807 129.894 80.1718C129.894 59.5368 146.663 42.7158 167.245 42.7158C187.88 42.7168 204.701 59.5378 204.701 80.1718Z" fill="white"/>
<path d="M306.672 117.628C327.358 117.628 344.128 100.858 344.128 80.1718C344.128 59.4854 327.358 42.7158 306.672 42.7158C285.986 42.7158 269.216 59.4854 269.216 80.1718C269.216 100.858 285.986 117.628 306.672 117.628Z" fill="white"/>
<path d="M324.656 212.695H278.202C272.432 212.695 267.754 217.373 267.754 223.143C267.754 228.913 272.432 233.591 278.202 233.591H324.656C330.426 233.591 335.104 228.913 335.104 223.143C335.104 217.373 330.425 212.695 324.656 212.695ZM324.656 254.3H278.202C272.432 254.3 267.754 258.978 267.754 264.748C267.754 270.518 272.432 275.196 278.202 275.196H324.656C330.426 275.196 335.104 270.518 335.104 264.748C335.104 258.979 330.425 254.3 324.656 254.3ZM324.656 295.903H278.202C272.432 295.903 267.754 300.581 267.754 306.351C267.754 312.121 272.432 316.799 278.202 316.799H324.656C330.426 316.799 335.104 312.121 335.104 306.351C335.104 300.581 330.425 295.903 324.656 295.903Z" fill="white"/>
</svg>
